<?xml version="1.0" encoding="UTF-8"?>
<svg width="68" height="90" viewBox="0 0 68 90" fill="none" xmlns="http://www.w3.org/2000/svg">
<path d="M45.1007 82.7592H45.7102V82.3159L45.0742 82.7592H45.1007Z" fill="#823C26"/>
<path d="M35.1911 89.9554V89.5903L34.6611 89.9554H35.1911Z" fill="#823C26"/>
<path d="M45.0752 82.7591L45.7112 82.3159V81.6379L44.0947 82.7591H45.0752Z" fill="#833D27"/>
<path d="M34.607 89.9556H34.66L35.19 89.5905V88.9126L33.7061 89.9556H34.607Z" fill="#833D27"/>
<path d="M32.8591 89.9555H33.707L35.191 88.9125V88.2346L32.7266 89.9555H32.8591Z" fill="#843E28"/>
<path d="M56.2049 74.1025V73.6853L55.6484 74.1025H56.2049Z" fill="#843E28"/>
<path d="M43.3792 82.7591H44.0947L45.7112 81.6379V80.96L43.1143 82.7591H43.3792Z" fill="#843E28"/>
<path d="M66.7248 65.9152H67.4668V65.2373L66.4863 65.9152H66.7248Z" fill="#853F29"/>
<path d="M35.1903 88.2346V87.5566L32.2754 89.5904V89.9555H32.7259L35.1903 88.2346Z" fill="#853F29"/>
<path d="M42.7695 82.7591H43.114L45.7109 80.96V80.3081L42.7695 82.3158V82.7591Z" fill="#853F29"/>
<path d="M55.6219 74.1025H55.6484L56.2049 73.6853V73.0334L54.668 74.1025H55.6219Z" fill="#853F29"/>
<path d="M35.1903 86.9048L32.2754 88.9386V89.5904L35.1903 87.5566V86.9048Z" fill="#86402A"/>
<path d="M42.7695 82.316L45.7109 80.3083V79.6304L42.7695 81.6641V82.316Z" fill="#86402A"/>
<path d="M66.1153 65.9154H66.4863L67.4668 65.2375V64.5596L65.5059 65.9154H66.1153Z" fill="#86402A"/>
<path d="M53.872 74.1027H54.667L56.2039 73.0336V72.3557L53.6865 74.1027H53.872Z" fill="#86402A"/>
<path d="M53.2891 74.1024H53.6865L56.204 72.3554V71.6775L53.2891 73.7113V74.1024Z" fill="#87412B"/>
<path d="M65.5057 65.9154L67.4667 64.5596V63.9077L64.5518 65.9154H65.5057Z" fill="#87412B"/>
<path d="M35.1903 86.2271L32.2754 88.2608V88.9387L35.1903 86.905V86.2271Z" fill="#87412B"/>
<path d="M42.7695 81.6639L45.7109 79.6301V78.9521L42.7695 80.9859V81.6639Z" fill="#87412B"/>
<path d="M53.2891 73.7115L56.204 71.6777V70.9998L53.2891 73.0335V73.7115Z" fill="#88422C"/>
<path d="M63.7833 65.9151H64.3928H64.5518L67.4667 63.9074V63.2295L63.5713 65.9151H63.7833Z" fill="#88422C"/>
<path d="M42.7695 80.9861L45.7109 78.9523V78.2744L42.7695 80.3082V80.9861Z" fill="#88422C"/>
<path d="M35.1903 85.5491L32.2754 87.5829V88.2608L35.1903 86.227V85.5491Z" fill="#88422C"/>
<path d="M42.7695 80.3081L45.7109 78.2744V77.5964L42.7695 79.6302V80.3081Z" fill="#89432D"/>
<path d="M63.041 65.9153H63.571L67.4664 63.2297V62.5518L63.041 65.6024V65.9153Z" fill="#89432D"/>
<path d="M35.1903 84.8711L32.2754 86.9049V87.5828L35.1903 85.549V84.8711Z" fill="#89432D"/>
<path d="M53.2891 73.0335L56.204 70.9997V70.3218L53.2891 72.3556V73.0335Z" fill="#89432D"/>
<path d="M53.2891 72.3555L56.204 70.3218V69.6699L53.2891 71.6776V72.3555Z" fill="#8A442E"/>
<path d="M63.041 65.6024L67.4664 62.5517V61.8738L63.041 64.9244V65.6024Z" fill="#8A442E"/>
<path d="M42.7695 79.6302L45.7109 77.5964V76.9446L42.7695 78.9523V79.6302Z" fill="#8A442E"/>
<path d="M35.1903 84.1931L32.2754 86.2269V86.9048L35.1903 84.871V84.1931Z" fill="#8A442E"/>
<path d="M35.1903 83.5413L32.2754 85.549V86.2269L35.1903 84.1931V83.5413Z" fill="#8B452F"/>
<path d="M63.041 64.9244L67.4664 61.8737V61.1958L63.041 64.2465V64.9244Z" fill="#8B452F"/>
<path d="M42.7695 78.9522L45.7109 76.9445V76.2666L42.7695 78.3004V78.9522Z" fill="#8B452F"/>
<path d="M53.2891 71.6776L56.204 69.6699V68.9919L53.2891 71.0257V71.6776Z" fill="#8B452F"/>
<path d="M35.1903 82.8633L32.2754 84.8971V85.5489L35.1903 83.5412V82.8633Z" fill="#8C4630"/>
<path d="M63.041 64.2465L67.4664 61.1958V60.5439L63.041 63.5685V64.2465Z" fill="#8C4630"/>
<path d="M42.7695 78.3006L45.7109 76.2668V75.5889L42.7695 77.6226V78.3006Z" fill="#8C4630"/>
<path d="M53.2891 71.0259L56.204 68.9921V68.3142L53.2891 70.348V71.0259Z" fill="#8C4630"/>
<path d="M42.7695 77.6224L45.7109 75.5886V74.9106L42.7695 76.9444V77.6224Z" fill="#8D4731"/>
<path d="M63.041 63.5687L67.4664 60.5441V59.8662L63.041 62.9169V63.5687Z" fill="#8D4731"/>
<path d="M53.2891 70.3479L56.204 68.3142V67.6362L53.2891 69.67V70.3479Z" fill="#8D4731"/>
<path d="M35.1903 82.1855L32.2754 84.2193V84.8972L35.1903 82.8635V82.1855Z" fill="#8D4731"/>
<path d="M53.2891 69.67L56.204 67.6362V66.9583L53.2891 68.992V69.67Z" fill="#8E4832"/>
<path d="M35.1903 81.5076L32.2754 83.5414V84.2193L35.1903 82.1855V81.5076Z" fill="#8E4832"/>
<path d="M63.041 62.9166L67.4664 59.8659V59.188L63.041 62.2387V62.9166Z" fill="#8E4832"/>
<path d="M42.7695 76.9446L45.7109 74.9108V74.2329L42.7695 76.2667V76.9446Z" fill="#8E4832"/>
<path d="M53.2891 68.992L56.204 66.9582V66.3064L53.2891 68.3141V68.992Z" fill="#8F4933"/>
<path d="M35.1903 80.8296L32.2754 82.8634V83.5413L35.1903 81.5075V80.8296Z" fill="#8F4933"/>
<path d="M63.041 62.2388L67.4664 59.1882V58.5103L63.041 61.5609V62.2388Z" fill="#8F4933"/>
<path d="M56.9472 65.9153V65.7849L56.7617 65.9153H56.9472Z" fill="#8F4933"/>
<path d="M42.7695 76.2669L45.7109 74.2331V73.5552L42.7695 75.589V76.2669Z" fill="#8F4933"/>
<path d="M42.7695 75.589L45.7109 73.5552V72.9033L42.7695 74.9371V75.589Z" fill="#904A34"/>
<path d="M35.1903 80.1777L32.2754 82.1854V82.8634L35.1903 80.8296V80.1777Z" fill="#904A34"/>
<path d="M63.041 61.5609L67.4664 58.5102V57.8323L63.041 60.8829V61.5609Z" fill="#904A34"/>
<path d="M53.2891 68.314L56.204 66.3063V65.9152H56.7605L56.9459 65.7849V65.1069L53.2891 67.6622V68.314Z" fill="#904A34"/>
<path d="M35.1903 79.4998L32.2754 81.5335V82.1854L35.1903 80.1777V79.4998Z" fill="#914B35"/>
<path d="M63.041 60.8829L67.4664 57.8322V57.1543L63.041 60.205V60.8829Z" fill="#914B35"/>
<path d="M42.7695 74.9368L45.7109 72.903V72.2251L42.7695 74.2589V74.9368Z" fill="#914B35"/>
<path d="M53.2891 67.6621L56.9459 65.1069V64.429L53.2891 66.9842V67.6621Z" fill="#914B35"/>
<path d="M42.7695 74.2591L45.7109 72.2253V71.5474L42.7695 73.5811V74.2591Z" fill="#924C36"/>
<path d="M53.2891 66.9842L56.9459 64.429V63.7771L53.2891 66.3063V66.9842Z" fill="#924C36"/>
<path d="M63.041 60.205L67.4664 57.1543V56.5024L63.041 59.5531V60.205Z" fill="#924C36"/>
<path d="M35.1903 78.822L32.2754 80.8558V81.5337L35.1903 79.5V78.822Z" fill="#924C36"/>
<path d="M53.2902 65.9154V66.3065L56.9471 63.7773V63.0994L52.8662 65.9154H53.2902Z" fill="#934D37"/>
<path d="M63.041 59.5533L67.4664 56.5026V55.8247L63.041 58.8754V59.5533Z" fill="#934D37"/>
<path d="M35.1903 78.144L32.2754 80.1778V80.8557L35.1903 78.822V78.144Z" fill="#934D37"/>
<path d="M42.7695 73.5809L45.7109 71.5471V70.8691L42.7695 72.9029V73.5809Z" fill="#934D37"/>
<path d="M52.5479 65.9153H52.8658L56.9467 63.0993V62.4214L52.5479 65.472V65.9153Z" fill="#944E38"/>
<path d="M63.041 58.8751L67.4664 55.8244V55.1465L63.041 58.1972V58.8751Z" fill="#944E38"/>
<path d="M42.7695 72.9031L45.7109 70.8693V70.1914L42.7695 72.2252V72.9031Z" fill="#944E38"/>
<path d="M35.1903 77.4661L32.2754 79.4999V80.1778L35.1903 78.144V77.4661Z" fill="#944E38"/>
<path d="M42.7695 72.2252L45.7109 70.1914V69.5396L42.7695 71.5473V72.2252Z" fill="#954F39"/>
<path d="M63.041 57.5195V58.1975L67.4664 55.1468V54.7817H67.0159L63.041 57.5195Z" fill="#954F39"/>
<path d="M35.1903 76.7881L32.2754 78.8219V79.4998L35.1903 77.466V76.7881Z" fill="#954F39"/>
<path d="M52.5479 65.472L56.9467 62.4213V61.7434L52.5479 64.7941V65.472Z" fill="#954F39"/>
<path d="M52.5479 64.794L56.9467 61.7433V61.0654L52.5479 64.1161V64.794Z" fill="#96503A"/>
<path d="M35.1903 76.1362L32.2754 78.17V78.8219L35.1903 76.7881V76.1362Z" fill="#96503A"/>
<path d="M66.7244 54.7816V54.3123L63.041 56.8414V57.5194L67.0159 54.7816H66.7244Z" fill="#96503A"/>
<path d="M42.7695 71.5475L45.7109 69.5398V68.8618L42.7695 70.8956V71.5475Z" fill="#96503A"/>
<path d="M35.1903 75.4583L32.2754 77.492V78.1699L35.1903 76.1362V75.4583Z" fill="#97513B"/>
<path d="M52.5479 64.1161L56.9467 61.0654V60.4136L52.5479 63.4382V64.1161Z" fill="#97513B"/>
<path d="M66.7244 53.6345L63.041 56.1637V56.8416L66.7244 54.3124V53.6345Z" fill="#97513B"/>
<path d="M42.7695 70.8953L45.7109 68.8615V68.1836L42.7695 70.2174V70.8953Z" fill="#97513B"/>
<path d="M24.6975 82.7332L24.6445 82.7597H24.6975V82.7332Z" fill="#97513B"/>
<path d="M24.6975 82.0549L23.6641 82.7589H24.088H24.6445L24.6975 82.7329V82.0549Z" fill="#98523C"/>
<path d="M42.7695 70.2175L45.7109 68.1838V67.5059L42.7695 69.5396V70.2175Z" fill="#98523C"/>
<path d="M35.1903 74.7805L32.2754 76.8143V77.4922L35.1903 75.4585V74.7805Z" fill="#98523C"/>
<path d="M52.5479 63.4381L56.9467 60.4135V59.7356L52.5479 62.7863V63.4381Z" fill="#98523C"/>
<path d="M66.7244 52.9563L63.041 55.5116V56.1634L66.7244 53.6342V52.9563Z" fill="#98523C"/>
<path d="M66.7244 52.2786L63.783 54.3123V54.7817H63.147L63.041 54.8338V55.5118L66.7244 52.9565V52.2786Z" fill="#99533D"/>
<path d="M42.7695 69.5396L45.7109 67.5058V66.8279L42.7695 68.8617V69.5396Z" fill="#99533D"/>
<path d="M52.5479 62.7865L56.9467 59.7358V59.0579L52.5479 62.1085V62.7865Z" fill="#99533D"/>
<path d="M35.1903 74.1025L32.2754 76.1363V76.8142L35.1903 74.7805V74.1025Z" fill="#99533D"/>
<path d="M24.6975 81.3772L22.6836 82.7591H23.6641L24.6975 82.0551V81.3772Z" fill="#99533D"/>
<path d="M52.5479 62.1085L56.9467 59.0578V58.3799L52.5479 61.4305V62.1085Z" fill="#9A543E"/>
<path d="M63.041 54.7817V54.8347L63.147 54.7817H63.041Z" fill="#9A543E"/>
<path d="M35.1903 73.4246L32.2754 75.4583V76.1363L35.1903 74.1025V73.4246Z" fill="#9A543E"/>
<path d="M46.4522 65.9153V65.6545L46.0547 65.9153H46.4522Z" fill="#9A543E"/>
<path d="M66.7246 51.6267L63.7832 53.6605V54.3123L66.7246 52.2786V51.6267Z" fill="#9A543E"/>
<path d="M24.6963 80.6992L21.7549 82.733V82.7591H22.3644H22.6824L24.6963 81.3771V80.6992Z" fill="#9A543E"/>
<path d="M42.7695 68.8616L45.7109 66.8278V66.1499L42.7695 68.1837V68.8616Z" fill="#9A543E"/>
<path d="M52.5479 61.4305L56.9467 58.3798V57.7019L52.5479 60.7526V61.4305Z" fill="#9B553F"/>
<path d="M42.7695 68.1837L45.7109 66.1499V65.9152H46.0554L46.4529 65.6545V64.9766L42.7695 67.5318V68.1837Z" fill="#9B553F"/>
<path d="M35.1903 72.7727L32.2754 74.7804V75.4583L35.1903 73.4246V72.7727Z" fill="#9B553F"/>
<path d="M24.6963 80.0212L21.7549 82.055V82.7329L24.6963 80.6992V80.0212Z" fill="#9B553F"/>
<path d="M66.7246 50.9487L63.7832 52.9825V53.6604L66.7246 51.6266V50.9487Z" fill="#9B553F"/>
<path d="M35.1903 72.095L32.2754 74.1287V74.7806L35.1903 72.7729V72.095Z" fill="#9C5640"/>
<path d="M52.5479 60.7528L56.9467 57.7021V57.0242L52.5479 60.0748V60.7528Z" fill="#9C5640"/>
<path d="M42.7695 67.5318L46.4529 64.9765V64.2986L42.7695 66.8539V67.5318Z" fill="#9C5640"/>
<path d="M66.7246 50.2708L63.7832 52.3045V52.9825L66.7246 50.9487V50.2708Z" fill="#9C5640"/>
<path d="M24.6963 79.3694L21.7549 81.4032V82.055L24.6963 80.0212V79.3694Z" fill="#9C5640"/>
<path d="M35.1903 71.4167L32.2754 73.4505V74.1284L35.1903 72.0947V71.4167Z" fill="#9D5740"/>
<path d="M52.5479 60.0748L56.9467 57.0242V56.3723L52.5479 59.3969V60.0748Z" fill="#9D5740"/>
<path d="M42.7695 66.8539L46.4529 64.2986V63.6467L42.7695 66.1759V66.8539Z" fill="#9D5740"/>
<path d="M66.7246 49.593L63.7832 51.6268V52.3047L66.7246 50.2709V49.593Z" fill="#9D5740"/>
<path d="M24.6963 78.6917L21.7549 80.7254V81.4034L24.6963 79.3696V78.6917Z" fill="#9D5740"/>
<path d="M42.7695 65.9154V66.1761L46.4529 63.6469V62.969L42.1865 65.9154H42.7695Z" fill="#9E5841"/>
<path d="M24.6963 78.0137L21.7549 80.0474V80.7254L24.6963 78.6916V78.0137Z" fill="#9E5841"/>
<path d="M66.7246 48.915L63.7832 50.9488V51.6267L66.7246 49.593V48.915Z" fill="#9E5841"/>
<path d="M52.5479 59.3966L56.9467 56.372V55.6941L52.5479 58.7448V59.3966Z" fill="#9E5841"/>
<path d="M35.1903 70.739L32.2754 72.7728V73.4507L35.1903 71.4169V70.739Z" fill="#9E5841"/>
<path d="M35.1903 70.061L32.2754 72.0948V72.7727L35.1903 70.739V70.061Z" fill="#9F5942"/>
<path d="M52.5479 58.7449L56.9467 55.6943V55.0164L52.5479 58.067V58.7449Z" fill="#9F5942"/>
<path d="M24.6963 77.3357L21.7549 79.3695V80.0474L24.6963 78.0136V77.3357Z" fill="#9F5942"/>
<path d="M66.7246 48.2632L63.7832 50.2709V50.9488L66.7246 48.915V48.2632Z" fill="#9F5942"/>
<path d="M42.0283 65.9153H42.1873L46.4537 62.9689V62.291L42.0283 65.3417V65.9153Z" fill="#9F5942"/>
<path d="M66.7246 47.5852L63.7832 49.619V50.2708L66.7246 48.2631V47.5852Z" fill="#A05A43"/>
<path d="M42.0283 65.3416L46.4537 62.291V61.613L42.0283 64.6637V65.3416Z" fill="#A05A43"/>
<path d="M24.6963 76.6577L21.7549 78.6915V79.3694L24.6963 77.3356V76.6577Z" fill="#A05A43"/>
<path d="M52.5479 58.067L56.9467 55.0163V54.3384L52.5479 57.389V58.067Z" fill="#A05A43"/>
<path d="M35.1903 69.4092L32.2754 71.4169V72.0948L35.1903 70.061V69.4092Z" fill="#A05A43"/>
<path d="M52.5479 57.389L56.9467 54.3383V53.6604L52.5479 56.7111V57.389Z" fill="#A15B44"/>
<path d="M35.1903 68.7312L32.2754 70.765V71.4168L35.1903 69.4091V68.7312Z" fill="#A15B44"/>
<path d="M66.7246 46.9072L63.7832 48.941V49.6189L66.7246 47.5852V46.9072Z" fill="#A15B44"/>
<path d="M42.0283 64.6636L46.4537 61.613V60.9351L42.0283 63.9857V64.6636Z" fill="#A15B44"/>
<path d="M24.6963 76.0059L21.7549 78.0396V78.6915L24.6963 76.6577V76.0059Z" fill="#A15B44"/>
<path d="M52.5479 56.7111L56.9467 53.6604V53.0085L52.5479 56.0331V56.7111Z" fill="#A35C45"/>
<path d="M35.1903 68.0535L32.2754 70.0872V70.7652L35.1903 68.7314V68.0535Z" fill="#A35C45"/>
<path d="M24.6963 75.3279L21.7549 77.3617V78.0396L24.6963 76.0058V75.3279Z" fill="#A35C45"/>
<path d="M66.7246 46.2292L63.7832 48.263V48.941L66.7246 46.9072V46.2292Z" fill="#A35C45"/>
<path d="M42.0283 63.9859L46.4537 60.9353V60.2573L42.0283 63.308V63.9859Z" fill="#A35C45"/>
<path d="M24.6963 74.6501L21.7549 76.6839V77.3619L24.6963 75.3281V74.6501Z" fill="#A45D46"/>
<path d="M66.7246 45.5515L63.7832 47.5853V48.2632L66.7246 46.2294V45.5515Z" fill="#A45D46"/>
<path d="M42.0283 63.3077L46.4537 60.2571V59.6052L42.0283 62.6559V63.3077Z" fill="#A45D46"/>
<path d="M52.5479 56.0333L56.9467 53.0087V52.3308L52.5479 55.3815V56.0333Z" fill="#A45D46"/>
<path d="M35.1903 67.3752L32.2754 69.409V70.0869L35.1903 68.0532V67.3752Z" fill="#A45D46"/>
<path d="M66.7246 44.8735L63.7832 46.9073V47.5852L66.7246 45.5515V44.8735Z" fill="#A55E47"/>
<path d="M24.6963 73.9722L21.7549 76.0059V76.6839L24.6963 74.6501V73.9722Z" fill="#A55E47"/>
<path d="M35.1903 66.6975L32.2754 68.7313V69.4092L35.1903 67.3754V66.6975Z" fill="#A55E47"/>
<path d="M42.0283 62.6561L46.4537 59.6054V58.9275L42.0283 61.9782V62.6561Z" fill="#A55E47"/>
<path d="M52.5479 55.3812L56.9467 52.3305V51.6526L52.5479 54.7033V55.3812Z" fill="#A55E47"/>
<path d="M66.7246 44.2217L63.7832 46.2555V46.9073L66.7246 44.8735V44.2217Z" fill="#A65F48"/>
<path d="M35.1903 66.0198L32.2754 68.0536V68.7315L35.1903 66.6977V66.0198Z" fill="#A65F48"/>
<path d="M42.0283 61.9781L46.4537 58.9274V58.2495L42.0283 61.3002V61.9781Z" fill="#A65F48"/>
<path d="M35.9334 65.915V65.5239L35.377 65.915H35.9334Z" fill="#A65F48"/>
<path d="M24.6963 73.2942L21.7549 75.328V76.0059L24.6963 73.9721V73.2942Z" fill="#A65F48"/>
<path d="M52.5479 54.7034L56.9467 51.6528V50.9749L52.5479 54.0255V54.7034Z" fill="#A65F48"/>
<path d="M66.7246 43.5437L63.7832 45.5775V46.2554L66.7246 44.2216V43.5437Z" fill="#A76049"/>
<path d="M42.0283 61.3001L46.4537 58.2495V57.5715L42.0283 60.6222V61.3001Z" fill="#A76049"/>
<path d="M24.6963 72.6423L21.7549 74.65V75.328L24.6963 73.2942V72.6423Z" fill="#A76049"/>
<path d="M52.5479 54.0255L56.9467 50.9748V50.2969L52.5479 53.3475V54.0255Z" fill="#A76049"/>
<path d="M35.1903 65.9152H35.3758L35.9323 65.5241V64.8462L32.2754 67.4014V68.0533L35.1903 66.0195V65.9152Z" fill="#A76049"/>
<path d="M24.6963 71.9644L21.7549 73.9981V74.65L24.6963 72.6423V71.9644Z" fill="#A8614A"/>
<path d="M52.5479 53.3475L56.9467 50.2968V49.6189L52.5479 52.6696V53.3475Z" fill="#A8614A"/>
<path d="M66.7246 42.8657L63.7832 44.8995V45.5774L66.7246 43.5437V42.8657Z" fill="#A8614A"/>
<path d="M35.9323 64.1685L32.2754 66.7237V67.4017L35.9323 64.8464V64.1685Z" fill="#A8614A"/>
<path d="M42.0283 60.6221L46.4537 57.5715V56.8936L42.0283 59.9442V60.6221Z" fill="#A8614A"/>
<path d="M66.7246 42.188L63.7832 44.2218V44.8997L66.7246 42.8659V42.188Z" fill="#A9624B"/>
<path d="M42.0283 59.9442L46.4537 56.8936V56.2417L42.0283 59.2663V59.9442Z" fill="#A9624B"/>
<path d="M35.9323 63.5166L32.2754 66.0458V66.7237L35.9323 64.1685V63.5166Z" fill="#A9624B"/>
<path d="M52.5479 52.6696L56.9467 49.6189V48.967L52.5479 52.0177V52.6696Z" fill="#A9624B"/>
<path d="M24.6963 71.2866L21.7549 73.3204V73.9983L24.6963 71.9645V71.2866Z" fill="#A9624B"/>
<path d="M35.933 62.8384L31.5342 65.889V65.9151H32.2762V66.0455L35.933 63.5163V62.8384Z" fill="#AA634C"/>
<path d="M24.6963 70.6086L21.7549 72.6424V73.3203L24.6963 71.2866V70.6086Z" fill="#AA634C"/>
<path d="M66.7246 41.5098L63.7832 43.5435V44.2215L66.7246 42.1877V41.5098Z" fill="#AA634C"/>
<path d="M52.5479 52.0179L56.9467 48.9672V48.2893L52.5479 51.34V52.0179Z" fill="#AA634C"/>
<path d="M42.0283 59.2665L46.4537 56.2419V55.564L42.0283 58.6146V59.2665Z" fill="#AA634C"/>
<path d="M52.5479 51.3397L56.9467 48.289V47.6111L52.5479 50.6617V51.3397Z" fill="#AB644D"/>
<path d="M35.933 62.1606L34.7936 62.9429V62.995H34.7141L31.5342 65.2113V65.8892L35.933 62.8386V62.1606Z" fill="#AB644D"/>
<path d="M24.6963 69.9307L21.7549 71.9644V72.6424L24.6963 70.6086V69.9307Z" fill="#AB644D"/>
<path d="M66.7246 40.8582L63.7832 42.8659V43.5438L66.7246 41.51V40.8582Z" fill="#AB644D"/>
<path d="M42.0283 58.6146L46.4537 55.5639V54.886L42.0283 57.9367V58.6146Z" fill="#AB644D"/>
<path d="M52.5479 50.6619L56.9467 47.6113V46.9333L52.5479 49.984V50.6619Z" fill="#AC654E"/>
<path d="M24.6963 69.2529L21.7549 71.2867V71.9646L24.6963 69.9309V69.2529Z" fill="#AC654E"/>
<path d="M34.7939 62.9428L35.9334 62.1606V61.4827L34.7939 62.291V62.9428Z" fill="#AC654E"/>
<path d="M66.7246 40.1802L63.7832 42.214V42.8658L66.7246 40.8581V40.1802Z" fill="#AC654E"/>
<path d="M33.7601 62.9949L31.5342 64.5332V65.2112L34.7141 62.9949H33.7601Z" fill="#AC654E"/>
<path d="M42.0283 57.9366L46.4537 54.8859V54.208L42.0283 57.2587V57.9366Z" fill="#AC654E"/>
<path d="M42.0283 57.2589L46.4537 54.2082V53.5303L42.0283 56.5809V57.2589Z" fill="#AD664F"/>
<path d="M24.6963 68.6008L21.7549 70.6346V71.2865L24.6963 69.2527V68.6008Z" fill="#AD664F"/>
<path d="M52.5479 49.984L56.9467 46.9333V46.8029H56.2047V46.7769L52.5479 49.306V49.984Z" fill="#AD664F"/>
<path d="M34.7931 62.0302V62.2909L35.9325 61.4826V60.8047L34.1836 62.0302H34.7931Z" fill="#AD664F"/>
<path d="M66.7246 39.5022L63.7832 41.536V42.2139L66.7246 40.1801V39.5022Z" fill="#AD664F"/>
<path d="M32.7796 62.9949L31.5342 63.8553V64.5332L33.7601 62.9949H32.7796Z" fill="#AD664F"/>
<path d="M52.5479 49.3062L56.2047 46.777V46.0991L52.5479 48.6283V49.3062Z" fill="#AE6750"/>
<path d="M42.0283 56.5807L46.4537 53.53V52.8782L42.0283 55.9028V56.5807Z" fill="#AE6750"/>
<path d="M66.7246 38.8242L63.7832 40.858V41.5359L66.7246 39.5021V38.8242Z" fill="#AE6750"/>
<path d="M32.6736 62.995V62.3953L31.5342 63.1775V63.8554L32.7796 62.995H32.6736Z" fill="#AE6750"/>
<path d="M24.6963 67.9229L21.7549 69.9566V70.6346L24.6963 68.6008V67.9229Z" fill="#AE6750"/>
<path d="M34.1844 62.0304L35.9334 60.8049V60.127L33.2305 62.0304H34.1844Z" fill="#AE6750"/>
<path d="M66.7246 38.1465L63.7832 40.1803V40.8582L66.7246 38.8244V38.1465Z" fill="#AF6851"/>
<path d="M42.0283 55.9027L46.4537 52.8781V52.2002L42.0283 55.2509V55.9027Z" fill="#AF6851"/>
<path d="M32.6736 62.0304H33.2301L35.933 60.1269V59.4751L34.7936 60.2573V60.3095H34.7141L31.5342 62.4997V63.1776L32.6736 62.3954V62.0304Z" fill="#AF6851"/>
<path d="M52.5479 48.628L56.2047 46.0988V45.4209L52.5479 47.9762V48.628Z" fill="#AF6851"/>
<path d="M24.6963 67.2451L21.7549 69.2789V69.9568L24.6963 67.923V67.2451Z" fill="#AF6851"/>
<path d="M66.7246 38.1205H66.1151V37.9119L63.7832 39.5024V40.1803L66.7246 38.1465V38.1205Z" fill="#B06952"/>
<path d="M24.6963 66.5671L21.7549 68.6009V69.2789L24.6963 67.2451V66.5671Z" fill="#B06952"/>
<path d="M33.7336 60.3093L31.5342 61.8477V62.4996L34.7141 60.3093H33.7336Z" fill="#B06952"/>
<path d="M14.1775 73.8418L13.833 74.1025H14.1775V73.8418Z" fill="#B06952"/>
<path d="M53.2898 46.803H53.2633L52.5479 47.2984V47.9763L56.2047 45.4211V44.7432L53.2898 46.7769V46.803Z" fill="#B06952"/>
<path d="M34.7939 60.257L35.9334 59.4748V58.7969L34.7939 59.5791V60.257Z" fill="#B06952"/>
<path d="M42.0283 55.2511L46.4537 52.2004V51.5225L42.0283 54.5731V55.2511Z" fill="#B06952"/>
<path d="M66.1151 37.2336L63.7832 38.8502V39.5021L66.1151 37.9116V37.2336Z" fill="#B16A53"/>
<path d="M32.7531 60.3093L31.5342 61.1698V61.8477L33.7336 60.3093H32.7531Z" fill="#B16A53"/>
<path d="M24.6963 65.9153H25.4383V65.3938L21.7549 67.923V68.6009L24.6963 66.5671V65.9153Z" fill="#B16A53"/>
<path d="M52.5479 46.8027V47.2981L53.2633 46.8027H52.5479Z" fill="#B16A53"/>
<path d="M34.7931 59.3446V59.5793L35.9325 58.7971V58.1191L34.1836 59.3446H34.7931Z" fill="#B16A53"/>
<path d="M42.0283 54.5728L46.4537 51.5222V50.8442L42.0283 53.8949V54.5728Z" fill="#B16A53"/>
<path d="M53.2891 46.7769L56.204 44.7432V44.0913L53.2891 46.1251V46.7769Z" fill="#B16A53"/>
<path d="M14.1765 73.1638L12.8516 74.1025H13.5935H13.832L14.1765 73.8418V73.1638Z" fill="#B16A53"/>
<path d="M32.6736 60.3094V59.7097L31.5342 60.4919V61.1699L32.7531 60.3094H32.6736Z" fill="#B26B54"/>
<path d="M66.1151 36.5559L64.3927 37.7553V38.1204H63.8362L63.7832 38.1725V38.8504L66.1151 37.2338V36.5559Z" fill="#B26B54"/>
<path d="M25.4383 64.7161L21.7549 67.2453V67.9232L25.4383 65.394V64.7161Z" fill="#B26B54"/>
<path d="M42.0283 53.8951L46.4537 50.8444V50.1665L42.0283 53.2172V53.8951Z" fill="#B26B54"/>
<path d="M53.2891 46.125L56.204 44.0913V43.4133L53.2891 45.4471V46.125Z" fill="#B26B54"/>
<path d="M14.1774 72.512L11.8984 74.1025H12.8524L14.1774 73.1638V72.512Z" fill="#B26B54"/>
<path d="M34.1836 59.3446L35.9325 58.1191V57.4412L33.2031 59.3446H34.1836Z" fill="#B26B54"/>
<path d="M32.6736 59.3445H33.2036L35.933 57.4411V56.7632L34.7936 57.5715V57.6497H34.6876L31.5342 59.8139V60.4918L32.6736 59.7096V59.3445Z" fill="#B36C55"/>
<path d="M42.0283 53.2174L46.4537 50.1667V49.4888L42.0283 52.5394V53.2174Z" fill="#B36C55"/>
<path d="M66.115 35.8779L64.3926 37.0773V37.7553L66.115 36.5559V35.8779Z" fill="#B36C55"/>
<path d="M25.4383 64.0378L21.7549 66.5931V67.245L25.4383 64.7158V64.0378Z" fill="#B36C55"/>
<path d="M14.1776 71.834L11.2627 73.8678V74.1024H11.8457H11.8987L14.1776 72.5119V71.834Z" fill="#B36C55"/>
<path d="M53.2891 45.4471L56.204 43.4133V42.7354L53.2891 44.7691V45.4471Z" fill="#B36C55"/>
<path d="M63.7832 38.1201V38.1731L63.8362 38.1201H63.7832Z" fill="#B36C55"/>
<path d="M42.0283 52.5394L46.4537 49.4888V48.8369L42.0283 51.8876V52.5394Z" fill="#B46D56"/>
<path d="M25.4383 63.3601L21.7549 65.9154V66.5933L25.4383 64.038V63.3601Z" fill="#B46D56"/>
<path d="M66.115 35.2L64.3926 36.3994V37.0773L66.115 35.8779V35.2Z" fill="#B46D56"/>
<path d="M34.7939 57.5715L35.9334 56.7632V56.1113L34.7939 56.8936V57.5715Z" fill="#B46D56"/>
<path d="M14.1776 71.1562L11.2627 73.19V73.8679L14.1776 71.8342V71.1562Z" fill="#B46D56"/>
<path d="M33.7071 57.6497L31.5342 59.1359V59.8138L34.6876 57.6497H33.7071Z" fill="#B46D56"/>
<path d="M53.2891 44.7691L56.204 42.7353V42.0574L53.2891 44.0912V44.7691Z" fill="#B46D56"/>
<path d="M34.7932 56.6591V56.8937L35.9327 56.1115V55.4336L34.1572 56.6591H34.7932Z" fill="#B56E57"/>
<path d="M25.439 62.7083L21.0137 65.7589V65.9154H21.7556L25.439 63.3601V62.7083Z" fill="#B56E57"/>
<path d="M53.2891 44.0913L56.204 42.0576V41.3796L53.2891 43.4134V44.0913Z" fill="#B56E57"/>
<path d="M66.115 34.522L64.3926 35.7214V36.3993L66.115 35.1999V34.522Z" fill="#B56E57"/>
<path d="M42.0283 51.8873L46.4537 48.8366V48.1587L42.0283 51.2094V51.8873Z" fill="#B56E57"/>
<path d="M14.1776 70.4783L11.2627 72.512V73.19L14.1776 71.1562V70.4783Z" fill="#B56E57"/>
<path d="M32.7266 57.6497L31.5342 58.484V59.1359L33.7071 57.6497H32.7266Z" fill="#B56E57"/>
<path d="M53.2891 43.4134L56.204 41.3796V40.7278L53.2891 42.7355V43.4134Z" fill="#B66F58"/>
<path d="M14.1776 69.8003L11.2627 71.8341V72.512L14.1776 70.4782V69.8003Z" fill="#B66F58"/>
<path d="M42.0283 51.2096L46.4537 48.1589V47.481L42.0283 50.5316V51.2096Z" fill="#B66F58"/>
<path d="M32.6736 57.6497V56.9978L31.5342 57.8061V58.484L32.7266 57.6497H32.6736Z" fill="#B66F58"/>
<path d="M66.115 33.8704L64.3926 35.0698V35.7216L66.115 34.5222V33.8704Z" fill="#B66F58"/>
<path d="M25.439 62.03L21.0137 65.0807V65.7586L25.439 62.7079V62.03Z" fill="#B66F58"/>
<path d="M34.1572 56.659L35.9327 55.4335V54.7556L33.1768 56.659H34.1572Z" fill="#B66F58"/>
<path d="M32.6736 56.659H33.1771L35.933 54.7556V54.0776L34.7936 54.8859V54.9641H34.6611L31.5342 57.1283V57.8062L32.6736 56.9979V56.659Z" fill="#B77059"/>
<path d="M53.2891 42.7354L56.204 40.7277V40.0498L53.2891 42.0836V42.7354Z" fill="#B77059"/>
<path d="M14.1776 69.1223L11.2627 71.1561V71.834L14.1776 69.8002V69.1223Z" fill="#B77059"/>
<path d="M42.0283 50.5313L46.4537 47.4807V46.8027L42.0283 49.8534V50.5313Z" fill="#B77059"/>
<path d="M25.439 61.3523L21.0137 64.403V65.0809L25.439 62.0302V61.3523Z" fill="#B77059"/>
<path d="M66.115 33.1924L64.3926 34.3918V35.0697L66.115 33.8703V33.1924Z" fill="#B77059"/>
<path d="M34.7939 54.8859L35.9334 54.0776V53.3997L34.7939 54.208V54.8859Z" fill="#B8715A"/>
<path d="M14.1776 68.4705L11.2627 70.5042V71.1561L14.1776 69.1223V68.4705Z" fill="#B8715A"/>
<path d="M66.115 32.5144L64.3926 33.7138V34.3917L66.115 33.1923V32.5144Z" fill="#B8715A"/>
<path d="M53.2891 42.0835L56.204 40.0498V39.3718L53.2891 41.4056V42.0835Z" fill="#B8715A"/>
<path d="M42.0283 49.8536L46.4537 46.8029V46.125L42.0283 49.1757V49.8536Z" fill="#B8715A"/>
<path d="M25.439 60.6746L21.0137 63.7252V64.4032L25.439 61.3525V60.6746Z" fill="#B8715A"/>
<path d="M33.6806 54.9641L31.5342 56.4503V57.1283L34.6611 54.9641H33.6806Z" fill="#B8715A"/>
<path d="M42.0283 49.1757L46.4537 46.125V45.4731L42.0283 48.4977V49.1757Z" fill="#B9725B"/>
<path d="M66.115 31.8364L64.3926 33.0358V33.7138L66.115 32.5144V31.8364Z" fill="#B9725B"/>
<path d="M32.7266 54.9641L31.5342 55.7724V56.4503L33.6806 54.9641H32.7266Z" fill="#B9725B"/>
<path d="M25.439 59.9963L21.0137 63.047V63.7249L25.439 60.6743V59.9963Z" fill="#B9725B"/>
<path d="M53.2891 41.4055L56.204 39.3718V38.6938L53.2891 40.7276V41.4055Z" fill="#B9725B"/>
<path d="M14.1776 67.7925L11.2627 69.8263V70.5042L14.1776 68.4704V67.7925Z" fill="#B9725B"/>
<path d="M34.7933 53.9733V54.208L35.9328 53.3997V52.7478L34.1309 53.9733H34.7933Z" fill="#B9725B"/>
<path d="M32.6736 54.9641V54.3123L31.5342 55.1206V55.7724L32.7266 54.9641H32.6736Z" fill="#BA735C"/>
<path d="M66.115 31.1584L64.3926 32.3579V33.0358L66.115 31.8364V31.1584Z" fill="#BA735C"/>
<path d="M25.439 59.3445L21.0137 62.3691V63.047L25.439 59.9963V59.3445Z" fill="#BA735C"/>
<path d="M14.1776 67.1147L11.2627 69.1485V69.8264L14.1776 67.7927V67.1147Z" fill="#BA735C"/>
<path d="M42.0283 48.4979L46.4537 45.4733V44.7954L42.0283 47.8461V48.4979Z" fill="#BA735C"/>
<path d="M34.1307 53.9732L35.9327 52.7477V52.0698L33.1768 53.9732H34.1307Z" fill="#BA735C"/>
<path d="M53.2891 40.7276L56.204 38.6938V38.0159L53.2891 40.0497V40.7276Z" fill="#BA735C"/>
<path d="M66.115 30.5066L64.3926 31.706V32.3579L66.115 31.1584V30.5066Z" fill="#BB745D"/>
<path d="M42.0283 47.8458L46.4537 44.7951V44.1172L42.0283 47.1678V47.8458Z" fill="#BB745D"/>
<path d="M25.439 58.6667L21.0137 61.7174V62.3693L25.439 59.3447V58.6667Z" fill="#BB745D"/>
<path d="M32.6736 53.9732H33.1771L35.933 52.0698V51.3918L34.7936 52.1741V52.2784H34.6611L31.5342 54.4425V55.1205L32.6736 54.3121V53.9732Z" fill="#BB745D"/>
<path d="M53.2891 40.0497L56.204 38.0159V37.364L53.2891 39.3717V40.0497Z" fill="#BB745D"/>
<path d="M14.1776 66.4368L11.2627 68.4705V69.1485L14.1776 67.1147V66.4368Z" fill="#BB745D"/>
<path d="M33.6806 52.2786L31.5342 53.7648V54.4427L34.6611 52.2786H33.6806Z" fill="#BC755D"/>
<path d="M14.1776 65.9153H14.9196V65.2634L11.2627 67.7926V68.4705L14.1776 66.4368V65.9153Z" fill="#BC755D"/>
<path d="M53.2891 39.3719L56.204 37.3642V36.6863L53.2891 38.7201V39.3719Z" fill="#BC755D"/>
<path d="M34.7939 52.1743L35.9334 51.392V50.7141L34.7939 51.5224V52.1743Z" fill="#BC755D"/>
<path d="M25.439 57.9888L21.0137 61.0394V61.7174L25.439 58.6667V57.9888Z" fill="#BC755D"/>
<path d="M42.0283 47.168L46.4537 44.1174V43.4395L42.0283 46.4901V47.168Z" fill="#BC755D"/>
<path d="M66.115 29.8286L64.3926 31.028V31.7059L66.115 30.5065V29.8286Z" fill="#BC755D"/>
<path d="M34.7933 51.2877V51.5223L35.9328 50.7141V50.0361L34.1309 51.2877H34.7933Z" fill="#BD765E"/>
<path d="M25.439 57.3108L21.0137 60.3615V61.0394L25.439 57.9887V57.3108Z" fill="#BD765E"/>
<path d="M14.9196 64.5854L11.2627 67.1146V67.7926L14.9196 65.2634V64.5854Z" fill="#BD765E"/>
<path d="M66.115 29.1509L64.3926 30.3503V31.0282L66.115 29.8288V29.1509Z" fill="#BD765E"/>
<path d="M32.7001 52.2786L31.5342 53.0869V53.7648L33.6806 52.2786H32.7001Z" fill="#BD765E"/>
<path d="M53.2891 38.72L56.204 36.6862V36.0083L53.2891 38.0421V38.72Z" fill="#BD765E"/>
<path d="M42.0283 46.4901L46.4537 43.4394V42.7615L42.0283 45.8121V46.4901Z" fill="#BD765E"/>
<path d="M53.2891 38.042L56.204 36.0082V35.3303L53.2891 37.3641V38.042Z" fill="#BE775F"/>
<path d="M34.1309 51.2876L35.9328 50.0361V49.3582L33.1504 51.2876H34.1309Z" fill="#BE775F"/>
<path d="M14.9196 63.9077L11.2627 66.463V67.1148L14.9196 64.5856V63.9077Z" fill="#BE775F"/>
<path d="M42.0283 45.8121L46.4537 42.7615V42.1096L42.0283 45.1342V45.8121Z" fill="#BE775F"/>
<path d="M32.6736 52.2786V51.6267L31.5342 52.4089V53.0869L32.7001 52.2786H32.6736Z" fill="#BE775F"/>
<path d="M25.439 56.6331L21.0137 59.6837V60.3616L25.439 57.311V56.6331Z" fill="#BE775F"/>
<path d="M66.115 28.4729L64.3926 29.6723V30.3502L66.115 29.1508V28.4729Z" fill="#BE775F"/>
<path d="M14.9187 63.2295L11.0498 65.9151H11.2618V66.4627L14.9187 63.9074V63.2295Z" fill="#BF7860"/>
<path d="M32.6736 51.2876H33.1506L35.933 49.3582V48.7063L34.7936 49.4885V49.5928H34.6346L31.5342 51.7309V52.4088L32.6736 51.6266V51.2876Z" fill="#BF7860"/>
<path d="M53.2891 37.3643L56.204 35.3305V34.6526L53.2891 36.6864V37.3643Z" fill="#BF7860"/>
<path d="M66.115 27.7949L64.3926 28.9943V29.6723L66.115 28.4728V27.7949Z" fill="#BF7860"/>
<path d="M25.439 55.9812L21.0137 59.0058V59.6837L25.439 56.6331V55.9812Z" fill="#BF7860"/>
<path d="M42.0283 45.1342L46.4537 42.1096V41.4316L42.0283 44.4823V45.1342Z" fill="#BF7860"/>
<path d="M25.439 55.303L21.0137 58.3536V59.0055L25.439 55.9809V55.303Z" fill="#C07961"/>
<path d="M33.6541 49.593L31.5342 51.0792V51.7311L34.6346 49.593H33.6541Z" fill="#C07961"/>
<path d="M14.9184 62.5776L10.5195 65.6283V65.9151H11.0495L14.9184 63.2295V62.5776Z" fill="#C07961"/>
<path d="M34.7939 49.4887L35.9334 48.7065V48.0286L34.7939 48.8108V49.4887Z" fill="#C07961"/>
<path d="M66.115 27.1431L64.3926 28.3164V28.9943L66.115 27.7949V27.1431Z" fill="#C07961"/>
<path d="M42.0283 44.4825L46.4537 41.4318V40.7539L42.0283 43.8046V44.4825Z" fill="#C07961"/>
<path d="M53.2891 36.6861L56.204 34.6523V33.9744L53.2891 36.0081V36.6861Z" fill="#C07961"/>
<path d="M34.7935 48.628V48.8105L35.9329 48.0283V47.3503L34.1045 48.628H34.7935Z" fill="#C17A62"/>
<path d="M32.6736 49.593L31.5342 50.4013V51.0792L33.6541 49.593H32.6736Z" fill="#C17A62"/>
<path d="M66.115 26.8042H65.638L64.3926 27.6646V28.3165L66.115 27.1432V26.8042Z" fill="#C17A62"/>
<path d="M42.0283 43.8043L46.4537 40.7536V40.0757L42.0283 43.1263V43.8043Z" fill="#C17A62"/>
<path d="M25.439 54.6252L21.0137 57.6759V58.3538L25.439 55.3032V54.6252Z" fill="#C17A62"/>
<path d="M14.9184 61.8999L10.5195 64.9506V65.6285L14.9184 62.5778V61.8999Z" fill="#C17A62"/>
<path d="M53.2891 36.0081L56.204 33.9744V33.3225L53.2891 35.3563V36.0081Z" fill="#C17A62"/>
<path d="M53.2891 35.3565L56.204 33.3227V32.6448L53.2891 34.6786V35.3565Z" fill="#C27B63"/>
<path d="M25.439 53.9473L21.0137 56.9979V57.6759L25.439 54.6252V53.9473Z" fill="#C27B63"/>
<path d="M32.6736 49.593V48.9412L31.5342 49.7234V50.4013L32.6736 49.593Z" fill="#C27B63"/>
<path d="M42.0283 43.1265L46.4537 40.0759V39.3979L42.0283 42.4486V43.1265Z" fill="#C27B63"/>
<path d="M14.9184 61.2219L10.5195 64.2726V64.9505L14.9184 61.8999V61.2219Z" fill="#C27B63"/>
<path d="M34.1035 48.6282L35.9319 47.3505V46.6726L33.123 48.6282H34.1035Z" fill="#C27B63"/>
<path d="M64.6576 26.8042L64.3926 26.9867V27.6647L65.638 26.8042H64.6576Z" fill="#C27B63"/>
<path d="M14.9184 60.5439L10.5195 63.5946V64.2725L14.9184 61.2219V60.5439Z" fill="#C37C64"/>
<path d="M32.6736 48.6284H33.1241L35.933 46.6728V45.9949L34.7936 46.8032V46.9335H34.6081L31.5342 49.0455V49.7235L32.6736 48.9412V48.6284Z" fill="#C37C64"/>
<path d="M42.0283 42.4486L46.4537 39.3979V38.72L42.0283 41.7706V42.4486Z" fill="#C37C64"/>
<path d="M25.439 53.2693L21.0137 56.32V56.9979L25.439 53.9472V53.2693Z" fill="#C37C64"/>
<path d="M64.3926 26.8042V26.9867L64.6576 26.8042H64.3926Z" fill="#C37C64"/>
<path d="M53.2891 34.6785L56.204 32.6447V31.9668L53.2891 34.0006V34.6785Z" fill="#C37C64"/>
<path d="M14.9184 59.8662L10.5195 62.9169V63.5948L14.9184 60.5441V59.8662Z" fill="#C47D65"/>
<path d="M33.6276 46.9333L31.5342 48.3674V49.0453L34.6081 46.9333H33.6276Z" fill="#C47D65"/>
<path d="M42.0283 41.7706L46.4537 38.72V38.0681L42.0283 41.1188V41.7706Z" fill="#C47D65"/>
<path d="M25.439 52.5916L21.0137 55.6422V56.3201L25.439 53.2695V52.5916Z" fill="#C47D65"/>
<path d="M53.2891 34.0005L56.204 31.9667V31.2888L53.2891 33.3226V34.0005Z" fill="#C47D65"/>
<path d="M34.7939 46.8029L35.9334 45.9946V45.3428L34.7939 46.125V46.8029Z" fill="#C47D65"/>
<path d="M42.0283 41.1188L46.4537 38.0682V37.4424H46.3477L42.0283 40.4409V41.1188Z" fill="#C57E66"/>
<path d="M25.439 51.9397L21.0137 54.9643V55.6422L25.439 52.5915V51.9397Z" fill="#C57E66"/>
<path d="M34.7936 45.9424V46.1249L35.9331 45.3427V44.6648L34.0781 45.9424H34.7936Z" fill="#C57E66"/>
<path d="M32.6736 46.9333V46.9072L31.5342 47.7155V48.3674L33.6276 46.9333H32.6736Z" fill="#C57E66"/>
<path d="M14.9184 59.2144L10.5195 62.239V62.9169L14.9184 59.8662V59.2144Z" fill="#C57E66"/>
<path d="M53.2891 33.3228L56.204 31.289V30.6111L53.2891 32.6449V33.3228Z" fill="#C57E66"/>
<path d="M25.439 51.2617L21.0137 54.3124V54.9642L25.439 51.9397V51.2617Z" fill="#C67F67"/>
<path d="M14.9184 58.5361L10.5195 61.5868V62.2387L14.9184 59.2141V58.5361Z" fill="#C67F67"/>
<path d="M53.2891 32.6449L56.204 30.6111V29.9592L53.2891 31.9669V32.6449Z" fill="#C67F67"/>
<path d="M42.0283 40.4408L46.3477 37.4422H45.7117V37.2336L42.0283 39.7628V40.4408Z" fill="#C67F67"/>
<path d="M4.42475 65.9153V65.811L4.23926 65.9153H4.42475Z" fill="#C67F67"/>
<path d="M34.077 45.9426L35.9319 44.665V43.9871L33.123 45.9426H34.077Z" fill="#C67F67"/>
<path d="M32.6736 46.2292L31.5342 47.0375V47.7155L32.6736 46.9072V46.2292Z" fill="#C67F67"/>
<path d="M25.439 50.5837L21.0137 53.6344V54.3123L25.439 51.2617V50.5837Z" fill="#C78068"/>
<path d="M14.9184 57.8584L10.5195 60.9091V61.587L14.9184 58.5363V57.8584Z" fill="#C78068"/>
<path d="M3.68362 65.9153H4.2401L4.42559 65.811V65.1331L3.28613 65.9153H3.68362Z" fill="#C78068"/>
<path d="M32.6736 45.9423H33.1241L35.933 43.9868V43.3088L34.7936 44.1171V44.2475H34.5816L31.5342 46.3595V47.0374L32.6736 46.2291V45.9423Z" fill="#C78068"/>
<path d="M42.0283 39.763L45.7117 37.2338V36.5559L42.0283 39.0851V39.763Z" fill="#C78068"/>
<path d="M53.2891 31.9667L56.204 29.959H55.621V29.6982L53.2891 31.3148V31.9667Z" fill="#C78068"/>
<path d="M3.07316 65.9152H3.28516L4.42461 65.133V64.4551L2.30469 65.9152H3.07316Z" fill="#C88169"/>
<path d="M42.0283 39.085L45.7117 36.5559V35.8779L42.0283 38.4071V39.085Z" fill="#C88169"/>
<path d="M33.6276 44.2478L31.5342 45.6819V46.3598L34.5816 44.2478H33.6276Z" fill="#C88169"/>
<path d="M25.439 49.9058L21.0137 52.9564V53.6344L25.439 50.5837V49.9058Z" fill="#C88169"/>
<path d="M53.2891 31.315L55.621 29.6984V29.0205L53.2891 30.6371V31.315Z" fill="#C88169"/>
<path d="M34.7939 44.1173L35.9334 43.309V42.6311L34.7939 43.4394V44.1173Z" fill="#C88169"/>
<path d="M14.9184 57.1807L10.5195 60.2313V60.9093L14.9184 57.8586V57.1807Z" fill="#C88169"/>
<path d="M14.9184 56.5024L10.5195 59.5531V60.231L14.9184 57.1804V56.5024Z" fill="#C9826A"/>
<path d="M25.439 49.2278L21.0137 52.2785V52.9564L25.439 49.9057V49.2278Z" fill="#C9826A"/>
<path d="M32.6736 44.2478V44.2217L31.5342 45.0039V45.6818L33.6276 44.2478H32.6736Z" fill="#C9826A"/>
<path d="M34.7936 43.2569V43.4394L35.9331 42.6311V41.9792L34.0781 43.2569H34.7936Z" fill="#C9826A"/>
<path d="M53.872 29.9591H53.2891V30.637L55.621 29.0204V28.3425L53.872 29.5419V29.9591Z" fill="#C9826A"/>
<path d="M1.35071 65.9152H2.30468L4.42461 64.455V63.7771L1.32422 65.9152H1.35071Z" fill="#C9826A"/>
<path d="M42.7703 37.4423H42.4788L42.0283 37.7291V38.4071L45.7117 35.8779V35.2L42.7703 37.2337V37.4423Z" fill="#C9826A"/>
<path d="M53.8721 29.5419L55.621 28.3425V27.6646L53.8721 28.864V29.5419Z" fill="#CA836B"/>
<path d="M0.742079 65.9154H1.32506L4.42545 63.7773V63.0994L0.371094 65.9154H0.742079Z" fill="#CA836B"/>
<path d="M42.0283 37.4424V37.7292L42.4788 37.4424H42.0283Z" fill="#CA836B"/>
<path d="M34.0781 43.2571L35.9331 41.9794V41.3015L33.0977 43.2571H34.0781Z" fill="#CA836B"/>
<path d="M25.439 48.5759L21.0137 51.6005V52.2784L25.439 49.2278V48.5759Z" fill="#CA836B"/>
<path d="M14.9184 55.8506L10.5195 58.8752V59.5531L14.9184 56.5024V55.8506Z" fill="#CA836B"/>
<path d="M32.6736 43.5437L31.5342 44.352V45.0038L32.6736 44.2216V43.5437Z" fill="#CA836B"/>
<path d="M42.7695 37.2337L45.7109 35.1999V34.522L42.7695 36.5558V37.2337Z" fill="#CA836B"/>
<path d="M4.42534 63.0994V62.4475L0 65.4721V65.9154H0.370986L4.42534 63.0994Z" fill="#CB846C"/>
<path d="M32.6736 43.2568H33.0976L35.933 41.3012V40.6233L34.7936 41.4055V41.562H34.5816L31.5342 43.674V44.3519L32.6736 43.5436V43.2568Z" fill="#CB846C"/>
<path d="M14.9184 55.1729L10.5195 58.2235V58.8754L14.9184 55.8508V55.1729Z" fill="#CB846C"/>
<path d="M42.7695 36.5559L45.7109 34.5222V33.8442L42.7695 35.878V36.5559Z" fill="#CB846C"/>
<path d="M25.439 47.8982L21.0137 50.9489V51.6007L25.439 48.5761V47.8982Z" fill="#CB846C"/>
<path d="M53.8721 28.8639L55.621 27.6645V26.9866L53.8721 28.186V28.8639Z" fill="#CB846C"/>
<path d="M4.42534 61.7695L0 64.8202V65.472L4.42534 62.4475V61.7695Z" fill="#CC856D"/>
<path d="M33.6011 41.562L31.5342 42.9961V43.674L34.5816 41.562H33.6011Z" fill="#CC856D"/>
<path d="M42.7695 35.878L45.7109 33.8442V33.1924L42.7695 35.2262V35.878Z" fill="#CC856D"/>
<path d="M25.439 47.2202L21.0137 50.2709V50.9488L25.439 47.8981V47.2202Z" fill="#CC856D"/>
<path d="M14.9184 54.4946L10.5195 57.5453V58.2232L14.9184 55.1725V54.4946Z" fill="#CC856D"/>
<path d="M34.7939 41.4057L35.9334 40.6235V39.9456L34.7939 40.7278V41.4057Z" fill="#CC856D"/>
<path d="M53.8721 28.186L55.621 26.9866V26.3347L53.8721 27.5341V28.186Z" fill="#CC856D"/>
<path d="M53.8721 27.5343L55.621 26.3349V25.657L53.8721 26.8564V27.5343Z" fill="#CD866E"/>
<path d="M42.7695 35.2261L45.7109 33.1923V32.5144L42.7695 34.5482V35.2261Z" fill="#CD866E"/>
<path d="M25.439 46.5422L21.0137 49.5929V50.2708L25.439 47.2202V46.5422Z" fill="#CD866E"/>
<path d="M32.6736 41.5622V41.5361L31.5342 42.3184V42.9963L33.6011 41.5622H32.6736Z" fill="#CD866E"/>
<path d="M4.42534 61.0916L0 64.1422V64.8201L4.42534 61.7695V61.0916Z" fill="#CD866E"/>
<path d="M34.7937 40.5713V40.7277L35.9332 39.9455V39.2676L34.0518 40.5713H34.7937Z" fill="#CD866E"/>
<path d="M14.9184 53.8169L10.5195 56.8675V57.5455L14.9184 54.4948V53.8169Z" fill="#CD866E"/>
<path d="M14.9184 53.1392L10.5195 56.1898V56.8677L14.9184 53.8171V53.1392Z" fill="#CE876F"/>
<path d="M53.8721 26.8563L55.621 25.6569V24.979L53.8721 26.1784V26.8563Z" fill="#CE876F"/>
<path d="M4.42534 60.4136L0 63.4642V64.1422L4.42534 61.0915V60.4136Z" fill="#CE876F"/>
<path d="M42.7695 34.5481L45.7109 32.5144V31.8364L42.7695 33.8702V34.5481Z" fill="#CE876F"/>
<path d="M32.6736 40.8582L31.5342 41.6404V42.3183L32.6736 41.5361V40.8582Z" fill="#CE876F"/>
<path d="M25.439 45.8643L21.0137 48.9149V49.5929L25.439 46.5422V45.8643Z" fill="#CE876F"/>
<path d="M34.0508 40.5712L35.9322 39.2675V38.5896L33.0703 40.5712H34.0508Z" fill="#CE876F"/>
<path d="M32.6736 40.5712H33.0711L35.933 38.5896V37.9377L34.7936 38.72V38.8764H34.5551L31.5342 40.9623V41.6403L32.6736 40.858V40.5712Z" fill="#CF8870"/>
<path d="M25.439 45.2124L21.0137 48.237V48.9149L25.439 45.8643V45.2124Z" fill="#CF8870"/>
<path d="M53.8721 26.1784L55.621 24.9789V24.301L53.8721 25.5004V26.1784Z" fill="#CF8870"/>
<path d="M14.9184 52.4609L10.5195 55.5116V56.1895L14.9184 53.1389V52.4609Z" fill="#CF8870"/>
<path d="M4.42534 59.7356L0 62.7863V63.4642L4.42534 60.4135V59.7356Z" fill="#CF8870"/>
<path d="M42.7695 33.8702L45.7109 31.8364V31.1584L42.7695 33.1922V33.8702Z" fill="#CF8870"/>
<path d="M34.7939 38.7202L35.9334 37.9379V37.26L34.7939 38.0422V38.7202Z" fill="#D08971"/>
<path d="M33.5746 38.8765L31.5342 40.3105V40.9624L34.5551 38.8765H33.5746Z" fill="#D08971"/>
<path d="M42.7695 33.1922L45.7109 31.1584V30.4805L42.7695 32.5143V33.1922Z" fill="#D08971"/>
<path d="M25.439 44.5347L21.0137 47.5853V48.2372L25.439 45.2126V44.5347Z" fill="#D08971"/>
<path d="M14.9184 51.8091L10.5195 54.8598V55.5116L14.9184 52.4609V51.8091Z" fill="#D08971"/>
<path d="M4.42534 59.0837L0 62.1083V62.7863L4.42534 59.7356V59.0837Z" fill="#D08971"/>
<path d="M53.8721 25.5004L55.621 24.301V23.623L53.8721 24.8225V25.5004Z" fill="#D08971"/>
<path d="M34.7929 37.9116V38.0419L35.9323 37.2597V36.5818L34.0244 37.9116H34.7929Z" fill="#D18A72"/>
<path d="M4.42534 58.406L0 61.4567V62.1085L4.42534 59.0839V58.406Z" fill="#D18A72"/>
<path d="M14.9184 51.1313L10.5195 54.182V54.86L14.9184 51.8093V51.1313Z" fill="#D18A72"/>
<path d="M53.8721 24.8225L55.621 23.623V22.9712L53.8721 24.1706V24.8225Z" fill="#D18A72"/>
<path d="M32.6736 38.8764V38.8242L31.5342 39.6325V40.3104L33.5746 38.8764H32.6736Z" fill="#D18A72"/>
<path d="M42.7695 32.5142L45.7109 30.4805V29.8286L42.7695 31.8363V32.5142Z" fill="#D18A72"/>
<path d="M25.439 43.8564L21.0137 46.9071V47.585L25.439 44.5344V43.8564Z" fill="#D18A72"/>
<path d="M42.7695 31.8365L45.7109 29.8288V29.1509L42.7695 31.1847V31.8365Z" fill="#D28B73"/>
<path d="M34.0243 37.9118L35.9322 36.582V35.9041L33.0703 37.9118H34.0243Z" fill="#D28B73"/>
<path d="M25.439 43.1787L21.0137 46.2294V46.9073L25.439 43.8566V43.1787Z" fill="#D28B73"/>
<path d="M14.9184 50.4534L10.5195 53.504V54.182L14.9184 51.1313V50.4534Z" fill="#D28B73"/>
<path d="M32.6736 38.1724L31.5342 38.9546V39.6325L32.6736 38.8242V38.1724Z" fill="#D28B73"/>
<path d="M53.8721 24.1705L55.621 22.9711V22.2932L53.8721 23.4926V24.1705Z" fill="#D28B73"/>
<path d="M4.42534 57.728L0 60.7787V61.4566L4.42534 58.4059V57.728Z" fill="#D28B73"/>
<path d="M53.8721 23.4928L55.621 22.2934V21.6155L53.8721 22.8149V23.4928Z" fill="#D38C74"/>
<path d="M32.6736 37.9117H33.0711L35.933 35.904V35.2261L34.7936 36.0344V36.1908H34.5286L31.5342 38.2767V38.9547L32.6736 38.1724V37.9117Z" fill="#D38C74"/>
<path d="M25.439 42.5007L21.0137 45.5514V46.2293L25.439 43.1787V42.5007Z" fill="#D38C74"/>
<path d="M14.9184 49.7754L10.5195 52.826V53.504L14.9184 50.4533V49.7754Z" fill="#D38C74"/>
<path d="M4.42534 57.05L0 60.1007V60.7786L4.42534 57.728V57.05Z" fill="#D38C74"/>
<path d="M42.7695 31.1846L45.7109 29.1508V28.4729L42.7695 30.5067V31.1846Z" fill="#D38C74"/>
<path d="M25.439 41.8228L21.0137 44.8734V45.5514L25.439 42.5007V41.8228Z" fill="#D48D75"/>
<path d="M53.8721 22.8148L55.621 21.6154V20.9375L53.8721 22.1369V22.8148Z" fill="#D48D75"/>
<path d="M34.7939 36.0344L35.9334 35.2261V34.5742L34.7939 35.3564V36.0344Z" fill="#D48D75"/>
<path d="M14.9184 49.0974L10.5195 52.1481V52.826L14.9184 49.7753V49.0974Z" fill="#D48D75"/>
<path d="M4.42534 56.3723L0 59.423V60.1009L4.42534 57.0502V56.3723Z" fill="#D48D75"/>
<path d="M33.5746 36.1909L31.5342 37.5989V38.2768L34.5286 36.1909H33.5746Z" fill="#D48D75"/>
<path d="M42.7695 30.5066L45.7109 28.4728V27.7949L42.7695 29.8287V30.5066Z" fill="#D48D75"/>
<path d="M14.9184 48.4458L10.5195 51.4704V52.1483L14.9184 49.0977V48.4458Z" fill="#D58E76"/>
<path d="M4.42534 55.6941L0 58.7448V59.4227L4.42534 56.372V55.6941Z" fill="#D58E76"/>
<path d="M42.7695 29.8289L45.7109 27.7951V27.1172L42.7695 29.151V29.8289Z" fill="#D58E76"/>
<path d="M53.8721 22.1369L55.621 20.9374V20.2595L53.8721 21.4589V22.1369Z" fill="#D58E76"/>
<path d="M34.7929 35.226V35.3564L35.9323 34.5742V33.8962L34.0244 35.226H34.7929Z" fill="#D58E76"/>
<path d="M32.6736 36.1908V36.1387L31.5342 36.947V37.5988L33.5746 36.1908H32.6736Z" fill="#D58E76"/>
<path d="M25.439 41.1709L21.0137 44.1955V44.8734L25.439 41.8228V41.1709Z" fill="#D58E76"/>
<path d="M34.0254 35.2262L35.9333 33.8964V33.2185L33.0449 35.2262H34.0254Z" fill="#D68F77"/>
<path d="M25.439 40.4932L21.0137 43.5438V44.1957L25.439 41.1711V40.4932Z" fill="#D68F77"/>
<path d="M14.9184 47.7676L10.5195 50.8182V51.4701L14.9184 48.4455V47.7676Z" fill="#D68F77"/>
<path d="M4.42534 55.0422L0 58.0929V58.7448L4.42534 55.6941V55.0422Z" fill="#D68F77"/>
<path d="M42.7695 29.1507L45.7109 27.1169V26.439L42.7695 28.4727V29.1507Z" fill="#D68F77"/>
<path d="M32.6736 35.4609L31.5342 36.2692V36.9472L32.6736 36.1389V35.4609Z" fill="#D68F77"/>
<path d="M53.8721 21.4589L55.621 20.2595V19.6077L53.8721 20.8071V21.4589Z" fill="#D68F77"/>
<path d="M25.439 39.8149L21.0137 42.8656V43.5435L25.439 40.4929V39.8149Z" fill="#D79078"/>
<path d="M53.8721 20.8073L55.621 19.6079V18.9299L53.8721 20.1293V20.8073Z" fill="#D79078"/>
<path d="M14.9184 47.0898L10.5195 50.1405V50.8184L14.9184 47.7678V47.0898Z" fill="#D79078"/>
<path d="M4.42534 54.7817H3.81587L0 57.4152V58.0931L4.42534 55.0425V54.7817Z" fill="#D79078"/>
<path d="M32.6736 35.2262H33.0446L35.933 33.2185V32.5405L34.7936 33.3488V33.5313H34.5286L31.5342 35.5912V36.2691L32.6736 35.4608V35.2262Z" fill="#D79078"/>
<path d="M42.7695 28.4727L45.7109 26.439V25.7871L42.7695 27.8209V28.4727Z" fill="#D79078"/>
<path d="M3.68337 54.7816V54.208L0 56.7372V57.4151L3.81587 54.7816H3.68337Z" fill="#D89179"/>
<path d="M34.7939 33.3488L35.9334 32.5405V31.8625L34.7939 32.6708V33.3488Z" fill="#D89179"/>
<path d="M53.8721 20.129L55.621 18.9296V18.2517L53.8721 19.4511V20.129Z" fill="#D89179"/>
<path d="M14.9184 46.8027H14.3619L10.5195 49.4623V50.1402L14.9184 47.0896V46.8027Z" fill="#D89179"/>
<path d="M42.7695 27.8211L45.7109 25.7873V25.1094L42.7695 27.1432V27.8211Z" fill="#D89179"/>
<path d="M25.439 39.1372L21.0137 42.1879V42.8658L25.439 39.8151V39.1372Z" fill="#D89179"/>
<path d="M33.5481 33.5312L31.5342 34.9132V35.5911L34.5286 33.5312H33.5481Z" fill="#D89179"/>
<path d="M34.793 32.5404V32.6708L35.9325 31.8625V31.1846L33.998 32.5404H34.793Z" fill="#D99279"/>
<path d="M3.68337 53.5303L0 56.0595V56.7374L3.68337 54.2082V53.5303Z" fill="#D99279"/>
<path d="M53.8721 19.4513L55.621 18.2519V17.574L53.8721 18.7734V19.4513Z" fill="#D99279"/>
<path d="M42.7695 27.1431L45.7109 25.1093V24.4314L42.7695 26.4652V27.1431Z" fill="#D99279"/>
<path d="M32.6736 33.5314V33.4531L31.5342 34.2353V34.9133L33.5481 33.5314H32.6736Z" fill="#D99279"/>
<path d="M14.1764 46.8029V46.2554L10.5195 48.7845V49.4625L14.3619 46.8029H14.1764Z" fill="#D99279"/>
<path d="M25.439 38.4595L21.0137 41.5101V42.1881L25.439 39.1374V38.4595Z" fill="#D99279"/>
<path d="M53.8721 18.7734L55.621 17.574V17.3394H54.985L53.8721 18.0955V18.7734Z" fill="#DA937A"/>
<path d="M3.68337 52.8521L0 55.3812V56.0592L3.68337 53.53V52.8521Z" fill="#DA937A"/>
<path d="M25.439 37.8076L21.0137 40.8322V41.5101L25.439 38.4595V37.8076Z" fill="#DA937A"/>
<path d="M42.7695 26.4651L45.7109 24.4313V23.7534L42.7695 25.7872V26.4651Z" fill="#DA937A"/>
<path d="M32.6736 32.7749L31.5342 33.5832V34.235L32.6736 33.4528V32.7749Z" fill="#DA937A"/>
<path d="M33.998 32.5404L35.9325 31.1846V30.5327L33.0176 32.5404H33.998Z" fill="#DA937A"/>
<path d="M14.1764 45.5774L10.5195 48.1066V48.7845L14.1764 46.2553V45.5774Z" fill="#DA937A"/>
<path d="M53.8721 17.4176V18.0955L54.985 17.3394H54.0046L53.8721 17.4176Z" fill="#DB947B"/>
<path d="M25.439 37.4424H24.962L21.0137 40.1802V40.832L25.439 37.8074V37.4424Z" fill="#DB947B"/>
<path d="M3.68337 52.1743L0.741971 54.2081V54.7817H0V55.3814L3.68337 52.8523V52.1743Z" fill="#DB947B"/>
<path d="M42.7695 25.7874L45.7109 23.7536V23.0757L42.7695 25.1095V25.7874Z" fill="#DB947B"/>
<path d="M32.6736 32.5404H33.0181L35.933 30.5327V29.8547L31.5342 32.9054V33.5833L32.6736 32.775V32.5404Z" fill="#DB947B"/>
<path d="M14.1764 44.8997L10.5195 47.4549V48.1068L14.1764 45.5776V44.8997Z" fill="#DB947B"/>
<path d="M35.933 29.6201H35.297L31.5342 32.2275V32.9055L35.933 29.8548V29.6201Z" fill="#DC957C"/>
<path d="M53.8721 17.3394V17.4189L54.0046 17.3394H53.8721Z" fill="#DC957C"/>
<path d="M14.1764 44.2217L11.2615 46.2555V46.803H10.5195V47.4549L14.1764 44.8996V44.2217Z" fill="#DC957C"/>
<path d="M24.697 37.4424V36.947L21.0137 39.5023V40.1802L24.962 37.4424H24.697Z" fill="#DC957C"/>
<path d="M3.68359 51.4961L0.742188 53.5299V54.2078L3.68359 52.174V51.4961Z" fill="#DC957C"/>
<path d="M42.7695 25.1095L45.7109 23.0757V22.4238L42.7695 24.4315V25.1095Z" fill="#DC957C"/>
<path d="M42.7695 24.4312L45.7109 22.4235V21.7456L42.7695 23.7794V24.4312Z" fill="#DD967D"/>
<path d="M3.68359 50.8184L0.742188 52.8521V53.5301L3.68359 51.4963V50.8184Z" fill="#DD967D"/>
<path d="M35.1911 29.6202V29.0205L31.5342 31.5497V32.2276L35.297 29.6202H35.1911Z" fill="#DD967D"/>
<path d="M24.697 36.2952L21.0137 38.8243V39.5023L24.697 36.947V36.2952Z" fill="#DD967D"/>
<path d="M14.1776 43.5698L11.2627 45.5775V46.2555L14.1776 44.2217V43.5698Z" fill="#DD967D"/>
<path d="M3.68359 50.1665L0.742188 52.2003V52.8521L3.68359 50.8184V50.1665Z" fill="#DE977E"/>
<path d="M24.697 35.6169L21.0137 38.1461V38.824L24.697 36.2949V35.6169Z" fill="#DE977E"/>
<path d="M35.1911 28.3425L31.5342 30.8717V31.5496L35.1911 29.0204V28.3425Z" fill="#DE977E"/>
<path d="M14.1776 42.8918L11.2627 44.9256V45.5775L14.1776 43.5698V42.8918Z" fill="#DE977E"/>
<path d="M42.7695 23.7797L45.7109 21.7459V21.2766H45.393L42.7695 23.1018V23.7797Z" fill="#DE977E"/>
<path d="M3.68359 49.4888L0.742188 51.5225V52.2005L3.68359 50.1667V49.4888Z" fill="#DF987F"/>
<path d="M14.1776 42.2139L11.2627 44.2476V44.9256L14.1776 42.8918V42.2139Z" fill="#DF987F"/>
<path d="M24.697 34.9392L21.7556 36.973V37.4423H21.0667L21.0137 37.4684V38.1463L24.697 35.6171V34.9392Z" fill="#DF987F"/>
<path d="M45.1015 20.8071L42.7695 22.4237V23.1017L45.3929 21.2765H45.1015V20.8071Z" fill="#DF987F"/>
<path d="M35.1911 27.6646L31.5342 30.1937V30.8717L35.1911 28.3425V27.6646Z" fill="#DF987F"/>
<path d="M24.6963 34.2615L21.7549 36.2953V36.9732L24.6963 34.9394V34.2615Z" fill="#E09980"/>
<path d="M3.68359 48.8105L0.742188 50.8443V51.5222L3.68359 49.4885V48.8105Z" fill="#E09980"/>
<path d="M21.0137 37.4424V37.4689L21.0667 37.4424H21.0137Z" fill="#E09980"/>
<path d="M45.1015 20.1292L42.7695 21.7457V22.4237L45.1015 20.8071V20.1292Z" fill="#E09980"/>
<path d="M35.1911 26.9866L32.2762 29.0203V29.6201H31.5342V30.1937L35.1911 27.6645V26.9866Z" fill="#E09980"/>
<path d="M14.1776 41.5361L11.2627 43.5699V44.2478L14.1776 42.2141V41.5361Z" fill="#E09980"/>
<path d="M35.1903 26.3088L32.2754 28.3426V29.0205L35.1903 26.9868V26.3088Z" fill="#E19A81"/>
<path d="M24.6963 33.5833L21.7549 35.617V36.295L24.6963 34.2612V33.5833Z" fill="#E19A81"/>
<path d="M3.68359 48.1328L0.742188 50.1666V50.8445L3.68359 48.8107V48.1328Z" fill="#E19A81"/>
<path d="M45.1015 19.4512L43.379 20.6506V21.2764H42.7695V21.7457L45.1015 20.1291V19.4512Z" fill="#E19A81"/>
<path d="M14.1776 40.8582L11.2627 42.8919V43.5699L14.1776 41.5361V40.8582Z" fill="#E19A81"/>
<path d="M45.1013 18.7993L43.3789 19.9987V20.6506L45.1013 19.4512V18.7993Z" fill="#E29B82"/>
<path d="M3.68359 47.4548L0.742188 49.4886V50.1665L3.68359 48.1328V47.4548Z" fill="#E29B82"/>
<path d="M35.1903 25.657L32.2754 27.6908V28.3426L35.1903 26.3088V25.657Z" fill="#E29B82"/>
<path d="M14.1776 40.1802L11.2627 42.214V42.8919L14.1776 40.8581V40.1802Z" fill="#E29B82"/>
<path d="M24.6963 32.9314L21.7549 34.9391V35.617L24.6963 33.5832V32.9314Z" fill="#E29B82"/>
<path d="M14.1776 39.5283L11.2627 41.5621V42.2139L14.1776 40.1802V39.5283Z" fill="#E39C83"/>
<path d="M45.1013 18.1216L43.3789 19.321V19.9989L45.1013 18.7995V18.1216Z" fill="#E39C83"/>
<path d="M24.6963 32.2537L21.7549 34.2874V34.9393L24.6963 32.9316V32.2537Z" fill="#E39C83"/>
<path d="M3.68359 46.8027L0.742188 48.8104V49.4884L3.68359 47.4546V46.8027Z" fill="#E39C83"/>
<path d="M35.1903 24.979L32.2754 27.0128V27.6907L35.1903 25.6569V24.979Z" fill="#E39C83"/>
<path d="M24.6963 31.5757L21.7549 33.6095V34.2874L24.6963 32.2536V31.5757Z" fill="#E49D84"/>
<path d="M14.1776 38.8503L11.2627 40.8841V41.562L14.1776 39.5283V38.8503Z" fill="#E49D84"/>
<path d="M45.1013 17.4436L43.3789 18.643V19.3209L45.1013 18.1215V17.4436Z" fill="#E49D84"/>
<path d="M3.68359 46.125L0.742188 48.1588V48.8106L3.68359 46.8029V46.125Z" fill="#E49D84"/>
<path d="M35.1903 24.301L32.2754 26.3348V27.0127L35.1903 24.9789V24.301Z" fill="#E49D84"/>
<path d="M45.1013 16.7656L43.3789 17.965V18.643L45.1013 17.4436V16.7656Z" fill="#E59E85"/>
<path d="M14.1776 38.1724L11.2627 40.2061V40.8841L14.1776 38.8503V38.1724Z" fill="#E59E85"/>
<path d="M24.6963 30.8977L21.7549 32.9315V33.6094L24.6963 31.5756V30.8977Z" fill="#E59E85"/>
<path d="M35.1903 23.623L32.2754 25.6568V26.3347L35.1903 24.301V23.623Z" fill="#E59E85"/>
<path d="M3.68359 45.4473L0.742188 47.481V48.159L3.68359 46.1252V45.4473Z" fill="#E59E85"/>
<path d="M14.1776 37.4946L11.2627 39.5284V40.2063L14.1776 38.1726V37.4946Z" fill="#E69F86"/>
<path d="M24.6963 30.22L21.7549 32.2538V32.9317L24.6963 30.8979V30.22Z" fill="#E69F86"/>
<path d="M35.1903 22.9451L32.2754 24.9788V25.6568L35.1903 23.623V22.9451Z" fill="#E69F86"/>
<path d="M45.1013 16.0879L43.3789 17.2873V17.9652L45.1013 16.7658V16.0879Z" fill="#E69F86"/>
<path d="M3.68359 44.769L0.742188 46.8028V47.4807L3.68359 45.447V44.769Z" fill="#E69F86"/>
<path d="M35.1903 22.2932L32.2754 24.3009V24.9788L35.1903 22.9451V22.2932Z" fill="#E7A087"/>
<path d="M14.1776 36.8164L11.2627 38.8502V39.5281L14.1776 37.4943V36.8164Z" fill="#E7A087"/>
<path d="M3.68359 44.0913L0.742188 46.1251V46.803L3.68359 44.7692V44.0913Z" fill="#E7A087"/>
<path d="M45.1013 15.4358L43.3789 16.6352V17.287L45.1013 16.0876V15.4358Z" fill="#E7A087"/>
<path d="M24.6963 29.542L21.7549 31.5758V32.2537L24.6963 30.2199V29.542Z" fill="#E7A087"/>
<path d="M35.1903 21.6155L32.2754 23.6493V24.3011L35.1903 22.2934V21.6155Z" fill="#E8A188"/>
<path d="M24.6963 28.8899L21.7549 30.9237V31.5755L24.6963 29.5417V28.8899Z" fill="#E8A188"/>
<path d="M3.68359 43.4395L0.742188 45.4472V46.1251L3.68359 44.0913V43.4395Z" fill="#E8A188"/>
<path d="M14.1776 36.1648L11.2627 38.1725V38.8504L14.1776 36.8166V36.1648Z" fill="#E8A188"/>
<path d="M45.1013 14.7578L43.3789 15.9572V16.6351L45.1013 15.4357V14.7578Z" fill="#E8A188"/>
<path d="M45.1013 14.0801L43.3789 15.2795V15.9574L45.1013 14.758V14.0801Z" fill="#E9A289"/>
<path d="M14.1776 35.4868L11.2627 37.5206V38.1724L14.1776 36.1647V35.4868Z" fill="#E9A289"/>
<path d="M3.68359 42.7615L0.742188 44.7952V45.4471L3.68359 43.4394V42.7615Z" fill="#E9A289"/>
<path d="M24.6963 28.2122L21.7549 30.2459V30.9239L24.6963 28.8901V28.2122Z" fill="#E9A289"/>
<path d="M35.1903 20.9375L32.2754 22.9713V23.6492L35.1903 21.6154V20.9375Z" fill="#E9A289"/>
<path d="M3.68359 42.0835L0.742188 44.1173V44.7952L3.68359 42.7614V42.0835Z" fill="#EAA38A"/>
<path d="M24.6963 27.5342L21.7549 29.568V30.2459L24.6963 28.2121V27.5342Z" fill="#EAA38A"/>
<path d="M14.1776 34.8091L11.2627 36.8429V37.5208L14.1776 35.487V34.8091Z" fill="#EAA38A"/>
<path d="M45.1013 13.4021L43.3789 14.6015V15.2794L45.1013 14.08V13.4021Z" fill="#EAA38A"/>
<path d="M35.1903 20.2595L32.2754 22.2933V22.9712L35.1903 20.9374V20.2595Z" fill="#EAA38A"/>
<path d="M3.68359 41.4058L0.742188 43.4395V44.1175L3.68359 42.0837V41.4058Z" fill="#EBA48B"/>
<path d="M14.1776 34.1309L11.2627 36.1646V36.8426L14.1776 34.8088V34.1309Z" fill="#EBA48B"/>
<path d="M45.1013 12.7241L43.3789 13.9235V14.6015L45.1013 13.402V12.7241Z" fill="#EBA48B"/>
<path d="M24.6963 26.8562L21.7549 28.89V29.5679L24.6963 27.5341V26.8562Z" fill="#EBA48B"/>
<path d="M35.1903 19.5818L32.2754 21.6156V22.2935L35.1903 20.2597V19.5818Z" fill="#EBA48B"/>
<path d="M14.1776 33.4531L11.2627 35.4869V36.1648L14.1776 34.1311V33.4531Z" fill="#ECA58C"/>
<path d="M24.6963 26.1785L21.7549 28.2122V28.8902L24.6963 26.8564V26.1785Z" fill="#ECA58C"/>
<path d="M45.1013 12.0723L43.3789 13.2717V13.9235L45.1013 12.7241V12.0723Z" fill="#ECA58C"/>
<path d="M3.68359 40.7278L0.742188 42.7616V43.4395L3.68359 41.4057V40.7278Z" fill="#ECA58C"/>
<path d="M35.1903 18.9036L32.2754 20.9373V21.6153L35.1903 19.5815V18.9036Z" fill="#ECA58C"/>
<path d="M45.1013 11.3945L43.3789 12.5939V13.2719L45.1013 12.0725V11.3945Z" fill="#EDA68D"/>
<path d="M24.6963 25.5266L21.7549 27.5343V28.2122L24.6963 26.1785V25.5266Z" fill="#EDA68D"/>
<path d="M14.1776 32.8013L11.2627 34.809V35.4869L14.1776 33.4531V32.8013Z" fill="#EDA68D"/>
<path d="M3.68359 40.0498L0.742188 42.0836V42.7615L3.68359 40.7277V40.0498Z" fill="#EDA68D"/>
<path d="M35.1903 18.2517L32.2754 20.2855V20.9373L35.1903 18.9036V18.2517Z" fill="#EDA68D"/>
<path d="M3.68359 39.3979L0.742188 41.4317V42.0836L3.68359 40.0498V39.3979Z" fill="#EEA78E"/>
<path d="M35.1903 17.574L32.2754 19.6078V20.2857L35.1903 18.2519V17.574Z" fill="#EEA78E"/>
<path d="M24.6963 24.8486L21.7549 26.8824V27.5343L24.6963 25.5266V24.8486Z" fill="#EEA78E"/>
<path d="M45.1013 10.7163L43.3789 11.9157V12.5936L45.1013 11.3942V10.7163Z" fill="#EEA78E"/>
<path d="M14.1776 32.1233L11.2627 34.1571V34.8089L14.1776 32.8012V32.1233Z" fill="#EEA78E"/>
<path d="M14.1776 31.4453L11.2627 33.4791V34.157L14.1776 32.1232V31.4453Z" fill="#EFA88F"/>
<path d="M3.68359 38.72L0.742188 40.7537V41.4317L3.68359 39.3979V38.72Z" fill="#EFA88F"/>
<path d="M35.1903 16.896L32.2754 18.9298V19.6077L35.1903 17.5739V16.896Z" fill="#EFA88F"/>
<path d="M45.1013 10.0386L43.3789 11.238V11.9159L45.1013 10.7165V10.0386Z" fill="#EFA88F"/>
<path d="M24.6963 24.1707L21.7549 26.2044V26.8824L24.6963 24.8486V24.1707Z" fill="#EFA88F"/>
<path d="M24.6963 23.4927L21.7549 25.5265V26.2044L24.6963 24.1706V23.4927Z" fill="#F0A990"/>
<path d="M45.1013 9.36084L43.3789 10.5602V11.2382L45.1013 10.0388V9.36084Z" fill="#F0A990"/>
<path d="M14.1776 30.7676L11.2627 32.8014V33.4793L14.1776 31.4455V30.7676Z" fill="#F0A990"/>
<path d="M35.1903 16.218L32.2754 18.2518V18.9297L35.1903 16.8959V16.218Z" fill="#F0A990"/>
<path d="M3.68359 38.1201H3.55109L0.742188 40.0757V40.7536L3.68359 38.7198V38.1201Z" fill="#F0A990"/>
<path d="M3.0741 38.1202V37.7812L0.742188 39.3978V40.0758L3.55109 38.1202H3.0741Z" fill="#F1AA91"/>
<path d="M45.1013 8.86499H44.8628L43.3789 9.88188V10.5598L45.1013 9.3604V8.86499Z" fill="#F1AA91"/>
<path d="M14.1776 30.0894L11.2627 32.1231V32.8011L14.1776 30.7673V30.0894Z" fill="#F1AA91"/>
<path d="M24.6963 22.8149L21.7549 24.8487V25.5266L24.6963 23.4929V22.8149Z" fill="#F1AA91"/>
<path d="M35.1903 15.5403L32.2754 17.5741V18.252L35.1903 16.2182V15.5403Z" fill="#F1AA91"/>
<path d="M35.1903 14.8884L32.2754 16.8961V17.5741L35.1903 15.5403V14.8884Z" fill="#F2AB92"/>
<path d="M14.1776 29.959H13.5946V29.8286L11.2627 31.4452V32.1231L14.1776 30.0894V29.959Z" fill="#F2AB92"/>
<path d="M24.6963 22.1628L21.7549 24.1705V24.8485L24.6963 22.8147V22.1628Z" fill="#F2AB92"/>
<path d="M43.8824 8.86499L43.3789 9.23003V9.88188L44.8628 8.86499H43.8824Z" fill="#F2AB92"/>
<path d="M3.0741 37.1035L0.742188 38.7201V39.398L3.0741 37.7814V37.1035Z" fill="#F2AB92"/>
<path d="M24.6963 21.4851L21.7549 23.5189V24.1707L24.6963 22.163V21.4851Z" fill="#F3AC93"/>
<path d="M43.3789 8.86499V9.23003L43.8824 8.86499H43.3789Z" fill="#F3AC93"/>
<path d="M3.0741 36.4253L1.35166 37.6247V38.1201H0.742188V38.7198L3.0741 37.1032V36.4253Z" fill="#F3AC93"/>
<path d="M35.1903 14.2102L32.2754 16.244V16.8958L35.1903 14.8881V14.2102Z" fill="#F3AC93"/>
<path d="M13.5946 29.177L11.2627 30.7936V31.4454L13.5946 29.8289V29.177Z" fill="#F3AC93"/>
<path d="M35.1903 14.0801H34.6073V13.9497L32.2754 15.5663V16.2442L35.1903 14.2104V14.0801Z" fill="#F4AD93"/>
<path d="M13.5946 28.499L11.8457 29.6984V29.9592H11.4747L11.2627 30.1156V30.7935L13.5946 29.177V28.499Z" fill="#F4AD93"/>
<path d="M3.074 35.7734L1.35156 36.9728V37.6247L3.074 36.4253V35.7734Z" fill="#F4AD93"/>
<path d="M24.6963 21.2765H24.0868V21.2244L21.7549 22.841V23.5189L24.6963 21.4851V21.2765Z" fill="#F4AD93"/>
<path d="M11.2627 29.9592V30.1157L11.4747 29.9592H11.2627Z" fill="#F5AE94"/>
<path d="M3.074 35.0957L1.35156 36.2951V36.973L3.074 35.7736V35.0957Z" fill="#F5AE94"/>
<path d="M34.6073 13.2717L32.2754 14.8883V15.5663L34.6073 13.9497V13.2717Z" fill="#F5AE94"/>
<path d="M24.0868 20.5464L21.7549 22.163V22.8409L24.0868 21.2243V20.5464Z" fill="#F5AE94"/>
<path d="M13.5946 27.821L11.8457 29.0204V29.6984L13.5946 28.499V27.821Z" fill="#F5AE94"/>
<path d="M34.6073 12.5938L32.8584 13.7932V14.08H32.4609L32.2754 14.2103V14.8883L34.6073 13.2717V12.5938Z" fill="#F6AF95"/>
<path d="M3.074 34.418L1.35156 35.6174V36.2953L3.074 35.0959V34.418Z" fill="#F6AF95"/>
<path d="M24.0868 19.8684L22.3644 21.0678V21.2764H22.0729L21.7549 21.485V22.1629L24.0868 20.5463V19.8684Z" fill="#F6AF95"/>
<path d="M13.5946 27.1431L11.8457 28.3425V29.0204L13.5946 27.821V27.1431Z" fill="#F6AF95"/>
<path d="M13.5946 26.4653L11.8457 27.6647V28.3427L13.5946 27.1433V26.4653Z" fill="#F7B096"/>
<path d="M21.7549 21.2766V21.4852L22.0729 21.2766H21.7549Z" fill="#F7B096"/>
<path d="M24.0877 19.1907L22.3652 20.3901V21.068L24.0877 19.8686V19.1907Z" fill="#F7B096"/>
<path d="M3.074 33.7397L1.35156 34.9392V35.6171L3.074 34.4177V33.7397Z" fill="#F7B096"/>
<path d="M34.6073 11.9419L32.8584 13.1152V13.7932L34.6073 12.5937V11.9419Z" fill="#F7B096"/>
<path d="M32.2754 14.0801V14.2104L32.4609 14.0801H32.2754Z" fill="#F7B096"/>
<path d="M34.6073 11.2639L32.8584 12.4633V13.1152L34.6073 11.9418V11.2639Z" fill="#F8B197"/>
<path d="M13.5946 25.8135L11.8457 27.0129V27.6647L13.5946 26.4653V25.8135Z" fill="#F8B197"/>
<path d="M24.0877 18.5388L22.3652 19.7382V20.3901L24.0877 19.1907V18.5388Z" fill="#F8B197"/>
<path d="M3.074 33.062L1.35156 34.2614V34.9393L3.074 33.7399V33.062Z" fill="#F8B197"/>
<path d="M24.0877 17.8606L22.3652 19.06V19.7379L24.0877 18.5385V17.8606Z" fill="#F9B298"/>
<path d="M13.5946 25.1355L11.8457 26.3349V27.0128L13.5946 25.8134V25.1355Z" fill="#F9B298"/>
<path d="M3.074 32.4102L1.35156 33.6096V34.2614L3.074 33.062V32.4102Z" fill="#F9B298"/>
<path d="M34.6073 10.5862L32.8584 11.7856V12.4635L34.6073 11.2641V10.5862Z" fill="#F9B298"/>
<path d="M34.6073 9.9082L32.8584 11.1076V11.7855L34.6073 10.5861V9.9082Z" fill="#FAB399"/>
<path d="M24.0877 17.1829L22.3652 18.3823V19.0602L24.0877 17.8608V17.1829Z" fill="#FAB399"/>
<path d="M13.5946 24.4575L11.8457 25.6569V26.3349L13.5946 25.1354V24.4575Z" fill="#FAB399"/>
<path d="M3.074 31.7322L1.35156 32.9316V33.6095L3.074 32.4101V31.7322Z" fill="#FAB399"/>
<path d="M24.0877 16.5049L22.3652 17.7043V18.3822L24.0877 17.1828V16.5049Z" fill="#FBB49A"/>
<path d="M13.5946 23.7795L11.8457 24.9789V25.6569L13.5946 24.4575V23.7795Z" fill="#FBB49A"/>
<path d="M3.074 31.0542L1.35156 32.2536V32.9315L3.074 31.7321V31.0542Z" fill="#FBB49A"/>
<path d="M34.6073 9.23022L32.8584 10.4296V11.1076L34.6073 9.90815V9.23022Z" fill="#FBB49A"/>
<path d="M24.0877 15.8269L22.3652 17.0263V17.7042L24.0877 16.5048V15.8269Z" fill="#FCB59B"/>
<path d="M13.5946 23.1016L11.8457 24.301V24.9789L13.5946 23.7795V23.1016Z" fill="#FCB59B"/>
<path d="M34.6073 8.55249L32.8584 9.7519V10.4298L34.6073 9.23042V8.55249Z" fill="#FCB59B"/>
<path d="M3.074 30.3762L1.35156 31.5756V32.2536L3.074 31.0541V30.3762Z" fill="#FCB59B"/>
<path d="M24.0877 15.175L22.3652 16.3744V17.0263L24.0877 15.8269V15.175Z" fill="#FDB69C"/>
<path d="M3.074 29.6982L1.35156 30.8977V31.5756L3.074 30.3762V29.6982Z" fill="#FDB69C"/>
<path d="M34.6073 7.90039L32.8584 9.0998V9.75165L34.6073 8.55224V7.90039Z" fill="#FDB69C"/>
<path d="M13.5946 22.4238L11.8457 23.6232V24.3012L13.5946 23.1018V22.4238Z" fill="#FDB69C"/>
<path d="M34.6073 7.22241L32.8584 8.42181V9.09974L34.6073 7.90033V7.22241Z" fill="#FEB79D"/>
<path d="M3.074 29.0464L1.35156 30.2458V30.8976L3.074 29.6982V29.0464Z" fill="#FEB79D"/>
<path d="M13.5946 21.772L11.8457 22.9714V23.6232L13.5946 22.4238V21.772Z" fill="#FEB79D"/>
<path d="M24.0877 14.4973L22.3652 15.6967V16.3746L24.0877 15.1752V14.4973Z" fill="#FEB79D"/>
<path d="M3.074 28.3687L1.35156 29.5681V30.246L3.074 29.0466V28.3687Z" fill="#FFB89E"/>
<path d="M24.0877 13.8193L22.3652 15.0187V15.6967L24.0877 14.4973V13.8193Z" fill="#FFB89E"/>
<path d="M34.6073 6.54468L32.8584 7.74409V8.42201L34.6073 7.22261V6.54468Z" fill="#FFB89E"/>
<path d="M13.5946 21.0938L11.8457 22.2932V22.9711L13.5946 21.7717V21.0938Z" fill="#FFB89E"/>
<path d="M24.0877 13.5583L22.3652 14.7578V15.0185L24.0877 13.8191V13.5583Z" fill="#FFB89E"/>
<path d="M3.074 28.1079L1.35156 29.3073V29.5681L3.074 28.3687V28.1079Z" fill="#FFB89E"/>
<path d="M34.6073 6.28394L32.8584 7.48334V7.74409L34.6073 6.54468V6.28394Z" fill="#FFB89E"/>
<path d="M13.5946 20.8333L11.8457 22.0327V22.2934L13.5946 21.094V20.8333Z" fill="#FFB89E"/>
<path d="M13.5946 20.5725L11.8457 21.7719V22.0327L13.5946 20.8333V20.5725Z" fill="#FEB79D"/>
<path d="M3.074 27.821L1.35156 29.0204V29.3073L3.074 28.1079V27.821Z" fill="#FEB79D"/>
<path d="M34.6073 6.02295L32.8584 7.22236V7.4831L34.6073 6.28369V6.02295Z" fill="#FEB79D"/>
<path d="M24.0877 13.2979L22.3652 14.4973V14.758L24.0877 13.5586V13.2979Z" fill="#FEB79D"/>
<path d="M34.6073 5.76245L32.8584 6.96186V7.2226L34.6073 6.02319V5.76245Z" fill="#FDB69C"/>
<path d="M13.5946 20.2856L11.8457 21.4851V21.7719L13.5946 20.5725V20.2856Z" fill="#FDB69C"/>
<path d="M3.074 27.5603L1.35156 28.7597V29.0204L3.074 27.821V27.5603Z" fill="#FDB69C"/>
<path d="M24.0877 13.011L22.3652 14.2104V14.4972L24.0877 13.2978V13.011Z" fill="#FDB69C"/>
<path d="M24.0877 12.7502L22.3652 13.9497V14.2104L24.0877 13.011V12.7502Z" fill="#FCB59C"/>
<path d="M13.5946 20.0249L11.8457 21.2243V21.4851L13.5946 20.2856V20.0249Z" fill="#FCB59C"/>
<path d="M3.074 27.2996L1.35156 28.499V28.7597L3.074 27.5603V27.2996Z" fill="#FCB59C"/>
<path d="M34.6073 5.47559L32.8584 6.67499V6.96181L34.6073 5.7624V5.47559Z" fill="#FCB59C"/>
<path d="M13.5946 19.7642L11.8457 20.9636V21.2243L13.5946 20.0249V19.7642Z" fill="#FBB59B"/>
<path d="M3.074 27.0388L1.35156 28.2382V28.499L3.074 27.2996V27.0388Z" fill="#FBB59B"/>
<path d="M34.6073 5.21484L32.8584 6.41425V6.67499L34.6073 5.47558V5.21484Z" fill="#FBB59B"/>
<path d="M24.0877 12.4895L22.3652 13.6889V13.9497L24.0877 12.7502V12.4895Z" fill="#FBB59B"/>
<path d="M24.0877 12.2288L22.3652 13.4282V13.6889L24.0877 12.4895V12.2288Z" fill="#FAB49A"/>
<path d="M34.6073 4.9541L32.8584 6.15351V6.41425L34.6073 5.21484V4.9541Z" fill="#FAB49A"/>
<path d="M3.074 26.8042H3.04751L1.35156 27.9775V28.2383L3.074 27.0389V26.8042Z" fill="#FAB49A"/>
<path d="M13.5946 19.5034L11.8457 20.7028V20.9636L13.5946 19.7642V19.5034Z" fill="#FAB49A"/>
<path d="M13.5946 19.2427L11.8457 20.4421V20.7028L13.5946 19.5034V19.2427Z" fill="#F9B399"/>
<path d="M34.6073 4.69336L32.8584 5.89277V6.15351L34.6073 4.9541V4.69336Z" fill="#F9B399"/>
<path d="M24.0877 11.968L22.3652 13.1674V13.4282L24.0877 12.2288V11.968Z" fill="#F9B399"/>
<path d="M2.65002 26.8042L1.35156 27.7168V27.9775L3.04751 26.8042H2.65002Z" fill="#F9B399"/>
<path d="M13.5946 18.9819L11.8457 20.1813V20.4421L13.5946 19.2427V18.9819Z" fill="#F8B298"/>
<path d="M24.0877 11.7073L22.3652 12.9067V13.1674L24.0877 11.968V11.7073Z" fill="#F8B298"/>
<path d="M2.27903 26.8042L1.35156 27.4561V27.7168L2.65002 26.8042H2.27903Z" fill="#F8B298"/>
<path d="M34.6073 4.43262L32.8584 5.63203V5.89277L34.6073 4.69336V4.43262Z" fill="#F8B298"/>
<path d="M13.5946 18.6953L11.8457 19.8947V20.1815L13.5946 18.9821V18.6953Z" fill="#F7B198"/>
<path d="M24.0877 11.4465L22.3652 12.6459V12.9067L24.0877 11.7073V11.4465Z" fill="#F7B198"/>
<path d="M34.6073 4.17163L32.8584 5.37104V5.63178L34.6073 4.43237V4.17163Z" fill="#F7B198"/>
<path d="M1.88154 26.8042L1.35156 27.1692V27.4561L2.27903 26.8042H1.88154Z" fill="#F7B198"/>
<path d="M1.51056 26.8042L1.35156 26.9085V27.1692L1.88154 26.8042H1.51056Z" fill="#F6B097"/>
<path d="M13.5946 18.4343L11.8457 19.6337V19.8945L13.5946 18.6951V18.4343Z" fill="#F6B097"/>
<path d="M24.0877 11.1597L22.3652 12.3591V12.6459L24.0877 11.4465V11.1597Z" fill="#F6B097"/>
<path d="M34.6073 3.88501L32.8584 5.08442V5.37124L34.6073 4.17183V3.88501Z" fill="#F6B097"/>
<path d="M13.5946 18.1736L11.8457 19.373V19.6337L13.5946 18.4343V18.1736Z" fill="#F5AF96"/>
<path d="M34.6073 3.62427L32.8584 4.82368V5.08442L34.6073 3.88501V3.62427Z" fill="#F5AF96"/>
<path d="M24.0877 10.8989L22.3652 12.0983V12.3591L24.0877 11.1597V10.8989Z" fill="#F5AF96"/>
<path d="M1.35156 26.8042V26.9085L1.51056 26.8042H1.35156Z" fill="#F5AF96"/>
<path d="M13.5946 17.9128L11.8457 19.1122V19.373L13.5946 18.1736V17.9128Z" fill="#F4AE95"/>
<path d="M34.6073 3.36377L32.8584 4.56318V4.82392L34.6073 3.62451V3.36377Z" fill="#F4AE95"/>
<path d="M24.0877 10.6382L22.3652 11.8376V12.0983L24.0877 10.8989V10.6382Z" fill="#F4AE95"/>
<path d="M34.6073 3.10278L32.8584 4.30219V4.56293L34.6073 3.36352V3.10278Z" fill="#F3AE94"/>
<path d="M13.5946 17.6521L11.8457 18.8515V19.1122L13.5946 17.9128V17.6521Z" fill="#F3AE94"/>
<path d="M24.0877 10.3774L22.3652 11.5769V11.8376L24.0877 10.6382V10.3774Z" fill="#F3AE94"/>
<path d="M24.0877 10.1167L22.3652 11.3161V11.5768L24.0877 10.3774V10.1167Z" fill="#F2AD94"/>
<path d="M34.6073 2.84204L32.8584 4.04145V4.30219L34.6073 3.10278V2.84204Z" fill="#F2AD94"/>
<path d="M13.5946 17.3916L11.8457 18.591V18.8517L13.5946 17.6523V17.3916Z" fill="#F2AD94"/>
<path d="M34.6073 2.5813L32.8584 3.78071V4.04145L34.6073 2.84204V2.5813Z" fill="#F1AC93"/>
<path d="M13.5946 17.3394H13.2767L11.8457 18.3302V18.5909L13.5946 17.3915V17.3394Z" fill="#F1AC93"/>
<path d="M24.0877 9.8562L22.3652 11.0556V11.3164L24.0877 10.1169V9.8562Z" fill="#F1AC93"/>
<path d="M24.0877 9.56909L22.3652 10.7685V11.0553L24.0877 9.8559V9.56909Z" fill="#F0AB92"/>
<path d="M12.8792 17.3394L11.8457 18.0434V18.3302L13.2767 17.3394H12.8792Z" fill="#F0AB92"/>
<path d="M34.6073 2.3208L32.8584 3.52021V3.78095L34.6073 2.58154V2.3208Z" fill="#F0AB92"/>
<path d="M24.0877 9.30859L22.3652 10.508V10.7687L24.0877 9.56933V9.30859Z" fill="#EFAA91"/>
<path d="M12.5082 17.3394L11.8457 17.7826V18.0434L12.8792 17.3394H12.5082Z" fill="#EFAA91"/>
<path d="M34.6073 2.03369L32.8584 3.2331V3.51992L34.6073 2.32051V2.03369Z" fill="#EFAA91"/>
<path d="M34.6073 1.77295L32.8584 2.97236V3.2331L34.6073 2.03369V1.77295Z" fill="#EEA990"/>
<path d="M12.1107 17.3394L11.8457 17.5219V17.7826L12.5082 17.3394H12.1107Z" fill="#EEA990"/>
<path d="M24.0877 9.04785L22.3652 10.2473V10.508L24.0877 9.30859V9.04785Z" fill="#EEA990"/>
<path d="M11.8457 17.3394V17.5219L12.1107 17.3394H11.8457Z" fill="#EDA890"/>
<path d="M24.0877 8.86499H23.9817L22.3652 9.98617V10.2469L24.0877 9.04751V8.86499Z" fill="#EDA890"/>
<path d="M34.6073 1.51245L32.8584 2.71186V2.9726L34.6073 1.77319V1.51245Z" fill="#EDA890"/>
<path d="M34.6073 1.25146L32.8584 2.45087V2.71161L34.6073 1.51221V1.25146Z" fill="#ECA78F"/>
<path d="M23.5842 8.86499L22.3652 9.72543V9.98617L23.9817 8.86499H23.5842Z" fill="#ECA78F"/>
<path d="M23.2132 8.86499L22.3652 9.46469V9.72543L23.5842 8.86499H23.2132Z" fill="#EBA78E"/>
<path d="M34.6073 0.990723L32.8584 2.19013V2.45087L34.6073 1.25146V0.990723Z" fill="#EBA78E"/>
<path d="M22.8422 8.86499L22.3652 9.20395V9.46469L23.2132 8.86499H22.8422Z" fill="#EAA68D"/>
<path d="M34.6073 0.72998L32.8584 1.92939V2.19013L34.6073 0.990721V0.72998Z" fill="#EAA68D"/>
<path d="M22.4447 8.86499L22.3652 8.91714V9.20395L22.8422 8.86499H22.4447Z" fill="#E9A58C"/>
<path d="M34.6073 0.443115L32.8584 1.64252V1.92933L34.6073 0.729924V0.443115Z" fill="#E9A58C"/>
<path d="M34.6073 0.182373L32.8584 1.38177V1.64251L34.6073 0.443114V0.182373Z" fill="#E8A48C"/>
<path d="M22.3652 8.86499V8.91799L22.4447 8.86499H22.3652Z" fill="#E8A48C"/>
<path d="M34.6073 0H34.5013L32.8584 1.12118V1.38192L34.6073 0.182522V0Z" fill="#E7A38B"/>
<path d="M34.1039 0L32.8584 0.860441V1.12118L34.5013 0H34.1039Z" fill="#E6A28A"/>
<path d="M33.7329 0L32.8584 0.599701V0.860441L34.1039 0H33.7329Z" fill="#E5A189"/>
<path d="M33.3354 0L32.8584 0.33896V0.5997L33.7329 0H33.3354Z" fill="#E4A188"/>
<path d="M32.9644 0L32.8584 0.078219V0.33896L33.3354 0H32.9644Z" fill="#E3A088"/>
<path d="M32.8584 0V0.079494L32.9644 0H32.8584Z" fill="#E29F87"/>
</svg>
